<?xml version="1.0"?>
<svg xmlns="http://www.w3.org/2000/svg" version="1.0">
<g transform="scale(0.2)">
<circle cx="20.0000" cy="44.0000" r="6"/>
<circle cx="33.0909" cy="44.0000" r="6"/>
<circle cx="46.1818" cy="44.0000" r="6"/>
<circle cx="59.2727" cy="44.0000" r="6"/>
<circle cx="20.0000" cy="56.0000" r="6"/>
<circle cx="65.8182" cy="56.0000" r="6"/>
<circle cx="20.0000" cy="68.0000" r="6"/>
<circle cx="65.8182" cy="68.0000" r="6"/>
<circle cx="20.0000" cy="80.0000" r="6"/>
<circle cx="65.8182" cy="80.0000" r="6"/>
<circle cx="20.0000" cy="92.0000" r="6"/>
<circle cx="65.8182" cy="92.0000" r="6"/>
<circle cx="98.5455" cy="44.0000" r="6"/>
<circle cx="111.6364" cy="44.0000" r="6"/>
<circle cx="124.7273" cy="44.0000" r="6"/>
<circle cx="137.8182" cy="44.0000" r="6"/>
<circle cx="92.0000" cy="56.0000" r="6"/>
<circle cx="144.3636" cy="56.0000" r="6"/>
<circle cx="92.0000" cy="68.0000" r="6"/>
<circle cx="144.3636" cy="68.0000" r="6"/>
<circle cx="92.0000" cy="80.0000" r="6"/>
<circle cx="144.3636" cy="80.0000" r="6"/>
<circle cx="98.5455" cy="92.0000" r="6"/>
<circle cx="111.6364" cy="92.0000" r="6"/>
<circle cx="124.7273" cy="92.0000" r="6"/>
<circle cx="137.8182" cy="92.0000" r="6"/>
<circle cx="164.0000" cy="44.0000" r="6"/>
<circle cx="183.6364" cy="44.0000" r="6"/>
<circle cx="196.7273" cy="44.0000" r="6"/>
<circle cx="209.8182" cy="44.0000" r="6"/>
<circle cx="164.0000" cy="56.0000" r="6"/>
<circle cx="177.0909" cy="56.0000" r="6"/>
<circle cx="164.0000" cy="68.0000" r="6"/>
<circle cx="164.0000" cy="80.0000" r="6"/>
<circle cx="164.0000" cy="92.0000" r="6"/>
<circle cx="242.5455" cy="44.0000" r="6"/>
<circle cx="255.6364" cy="44.0000" r="6"/>
<circle cx="268.7273" cy="44.0000" r="6"/>
<circle cx="281.8182" cy="44.0000" r="6"/>
<circle cx="236.0000" cy="56.0000" r="6"/>
<circle cx="262.1818" cy="56.0000" r="6"/>
<circle cx="288.3636" cy="56.0000" r="6"/>
<circle cx="236.0000" cy="68.0000" r="6"/>
<circle cx="262.1818" cy="68.0000" r="6"/>
<circle cx="288.3636" cy="68.0000" r="6"/>
<circle cx="236.0000" cy="80.0000" r="6"/>
<circle cx="262.1818" cy="80.0000" r="6"/>
<circle cx="288.3636" cy="80.0000" r="6"/>
<circle cx="236.0000" cy="92.0000" r="6"/>
<circle cx="262.1818" cy="92.0000" r="6"/>
<circle cx="288.3636" cy="92.0000" r="6"/>
<circle cx="321.0909" cy="44.0000" r="6"/>
<circle cx="334.1818" cy="44.0000" r="6"/>
<circle cx="347.2727" cy="44.0000" r="6"/>
<circle cx="353.8182" cy="56.0000" r="6"/>
<circle cx="314.5455" cy="68.0000" r="6"/>
<circle cx="327.6364" cy="68.0000" r="6"/>
<circle cx="340.7273" cy="68.0000" r="6"/>
<circle cx="353.8182" cy="68.0000" r="6"/>
<circle cx="308.0000" cy="80.0000" r="6"/>
<circle cx="353.8182" cy="80.0000" r="6"/>
<circle cx="314.5455" cy="92.0000" r="6"/>
<circle cx="327.6364" cy="92.0000" r="6"/>
<circle cx="340.7273" cy="92.0000" r="6"/>
<circle cx="360.3636" cy="92.0000" r="6"/>
<circle cx="386.5455" cy="20.0000" r="6"/>
<circle cx="399.6364" cy="20.0000" r="6"/>
<circle cx="399.6364" cy="32.0000" r="6"/>
<circle cx="399.6364" cy="44.0000" r="6"/>
<circle cx="399.6364" cy="56.0000" r="6"/>
<circle cx="399.6364" cy="68.0000" r="6"/>
<circle cx="399.6364" cy="80.0000" r="6"/>
<circle cx="386.5455" cy="92.0000" r="6"/>
<circle cx="399.6364" cy="92.0000" r="6"/>
<circle cx="412.7273" cy="92.0000" r="6"/>
<circle cx="524.0000" cy="20.0000" r="6"/>
<circle cx="537.0909" cy="20.0000" r="6"/>
<circle cx="628.7273" cy="20.0000" r="6"/>
<circle cx="641.8182" cy="20.0000" r="6"/>
<circle cx="524.0000" cy="32.0000" r="6"/>
<circle cx="537.0909" cy="32.0000" r="6"/>
<circle cx="628.7273" cy="32.0000" r="6"/>
<circle cx="641.8182" cy="32.0000" r="6"/>
<circle cx="524.0000" cy="44.0000" r="6"/>
<circle cx="537.0909" cy="44.0000" r="6"/>
<circle cx="576.3636" cy="44.0000" r="6"/>
<circle cx="589.4545" cy="44.0000" r="6"/>
<circle cx="628.7273" cy="44.0000" r="6"/>
<circle cx="641.8182" cy="44.0000" r="6"/>
<circle cx="524.0000" cy="56.0000" r="6"/>
<circle cx="537.0909" cy="56.0000" r="6"/>
<circle cx="576.3636" cy="56.0000" r="6"/>
<circle cx="589.4545" cy="56.0000" r="6"/>
<circle cx="628.7273" cy="56.0000" r="6"/>
<circle cx="641.8182" cy="56.0000" r="6"/>
<circle cx="524.0000" cy="68.0000" r="6"/>
<circle cx="537.0909" cy="68.0000" r="6"/>
<circle cx="563.2727" cy="68.0000" r="6"/>
<circle cx="576.3636" cy="68.0000" r="6"/>
<circle cx="589.4545" cy="68.0000" r="6"/>
<circle cx="602.5455" cy="68.0000" r="6"/>
<circle cx="628.7273" cy="68.0000" r="6"/>
<circle cx="641.8182" cy="68.0000" r="6"/>
<circle cx="524.0000" cy="80.0000" r="6"/>
<circle cx="537.0909" cy="80.0000" r="6"/>
<circle cx="550.1818" cy="80.0000" r="6"/>
<circle cx="563.2727" cy="80.0000" r="6"/>
<circle cx="602.5455" cy="80.0000" r="6"/>
<circle cx="615.6364" cy="80.0000" r="6"/>
<circle cx="628.7273" cy="80.0000" r="6"/>
<circle cx="641.8182" cy="80.0000" r="6"/>
<circle cx="537.0909" cy="92.0000" r="6"/>
<circle cx="550.1818" cy="92.0000" r="6"/>
<circle cx="615.6364" cy="92.0000" r="6"/>
<circle cx="628.7273" cy="92.0000" r="6"/>
<circle cx="694.1818" cy="20.0000" r="6"/>
<circle cx="707.2727" cy="20.0000" r="6"/>
<circle cx="720.3636" cy="20.0000" r="6"/>
<circle cx="733.4545" cy="20.0000" r="6"/>
<circle cx="746.5455" cy="20.0000" r="6"/>
<circle cx="759.6364" cy="20.0000" r="6"/>
<circle cx="720.3636" cy="32.0000" r="6"/>
<circle cx="733.4545" cy="32.0000" r="6"/>
<circle cx="720.3636" cy="44.0000" r="6"/>
<circle cx="733.4545" cy="44.0000" r="6"/>
<circle cx="720.3636" cy="56.0000" r="6"/>
<circle cx="733.4545" cy="56.0000" r="6"/>
<circle cx="720.3636" cy="68.0000" r="6"/>
<circle cx="733.4545" cy="68.0000" r="6"/>
<circle cx="720.3636" cy="80.0000" r="6"/>
<circle cx="733.4545" cy="80.0000" r="6"/>
<circle cx="694.1818" cy="92.0000" r="6"/>
<circle cx="707.2727" cy="92.0000" r="6"/>
<circle cx="720.3636" cy="92.0000" r="6"/>
<circle cx="733.4545" cy="92.0000" r="6"/>
<circle cx="746.5455" cy="92.0000" r="6"/>
<circle cx="759.6364" cy="92.0000" r="6"/>
<circle cx="812.0000" cy="20.0000" r="6"/>
<circle cx="825.0909" cy="20.0000" r="6"/>
<circle cx="838.1818" cy="20.0000" r="6"/>
<circle cx="851.2727" cy="20.0000" r="6"/>
<circle cx="864.3636" cy="20.0000" r="6"/>
<circle cx="877.4545" cy="20.0000" r="6"/>
<circle cx="890.5455" cy="20.0000" r="6"/>
<circle cx="903.6364" cy="20.0000" r="6"/>
<circle cx="838.1818" cy="32.0000" r="6"/>
<circle cx="851.2727" cy="32.0000" r="6"/>
<circle cx="903.6364" cy="32.0000" r="6"/>
<circle cx="916.7273" cy="32.0000" r="6"/>
<circle cx="838.1818" cy="44.0000" r="6"/>
<circle cx="851.2727" cy="44.0000" r="6"/>
<circle cx="916.7273" cy="44.0000" r="6"/>
<circle cx="929.8182" cy="44.0000" r="6"/>
<circle cx="838.1818" cy="56.0000" r="6"/>
<circle cx="851.2727" cy="56.0000" r="6"/>
<circle cx="916.7273" cy="56.0000" r="6"/>
<circle cx="929.8182" cy="56.0000" r="6"/>
<circle cx="838.1818" cy="68.0000" r="6"/>
<circle cx="851.2727" cy="68.0000" r="6"/>
<circle cx="916.7273" cy="68.0000" r="6"/>
<circle cx="929.8182" cy="68.0000" r="6"/>
<circle cx="838.1818" cy="80.0000" r="6"/>
<circle cx="851.2727" cy="80.0000" r="6"/>
<circle cx="903.6364" cy="80.0000" r="6"/>
<circle cx="916.7273" cy="80.0000" r="6"/>
<circle cx="812.0000" cy="92.0000" r="6"/>
<circle cx="825.0909" cy="92.0000" r="6"/>
<circle cx="838.1818" cy="92.0000" r="6"/>
<circle cx="851.2727" cy="92.0000" r="6"/>
<circle cx="864.3636" cy="92.0000" r="6"/>
<circle cx="877.4545" cy="92.0000" r="6"/>
<circle cx="890.5455" cy="92.0000" r="6"/>
<circle cx="903.6364" cy="92.0000" r="6"/>
<circle cx="956.0000" cy="20.0000" r="6"/>
<circle cx="969.0909" cy="20.0000" r="6"/>
<circle cx="982.1818" cy="20.0000" r="6"/>
<circle cx="995.2727" cy="20.0000" r="6"/>
<circle cx="1008.3636" cy="20.0000" r="6"/>
<circle cx="1021.4545" cy="20.0000" r="6"/>
<circle cx="1034.5455" cy="20.0000" r="6"/>
<circle cx="1047.6364" cy="20.0000" r="6"/>
<circle cx="1060.7273" cy="20.0000" r="6"/>
<circle cx="1073.8182" cy="20.0000" r="6"/>
<circle cx="956.0000" cy="32.0000" r="6"/>
<circle cx="969.0909" cy="32.0000" r="6"/>
<circle cx="956.0000" cy="44.0000" r="6"/>
<circle cx="969.0909" cy="44.0000" r="6"/>
<circle cx="956.0000" cy="56.0000" r="6"/>
<circle cx="969.0909" cy="56.0000" r="6"/>
<circle cx="982.1818" cy="56.0000" r="6"/>
<circle cx="995.2727" cy="56.0000" r="6"/>
<circle cx="1008.3636" cy="56.0000" r="6"/>
<circle cx="1021.4545" cy="56.0000" r="6"/>
<circle cx="1034.5455" cy="56.0000" r="6"/>
<circle cx="1047.6364" cy="56.0000" r="6"/>
<circle cx="956.0000" cy="68.0000" r="6"/>
<circle cx="969.0909" cy="68.0000" r="6"/>
<circle cx="956.0000" cy="80.0000" r="6"/>
<circle cx="969.0909" cy="80.0000" r="6"/>
<circle cx="956.0000" cy="92.0000" r="6"/>
<circle cx="969.0909" cy="92.0000" r="6"/>
<circle cx="982.1818" cy="92.0000" r="6"/>
<circle cx="995.2727" cy="92.0000" r="6"/>
<circle cx="1008.3636" cy="92.0000" r="6"/>
<circle cx="1021.4545" cy="92.0000" r="6"/>
<circle cx="1034.5455" cy="92.0000" r="6"/>
<circle cx="1047.6364" cy="92.0000" r="6"/>
<circle cx="1060.7273" cy="92.0000" r="6"/>
<circle cx="1073.8182" cy="92.0000" r="6"/>
<circle cx="20.0000" cy="140.0000" r="6"/>
<circle cx="72.3636" cy="140.0000" r="6"/>
<circle cx="20.0000" cy="152.0000" r="6"/>
<circle cx="33.0909" cy="152.0000" r="6"/>
<circle cx="72.3636" cy="152.0000" r="6"/>
<circle cx="20.0000" cy="164.0000" r="6"/>
<circle cx="39.6364" cy="164.0000" r="6"/>
<circle cx="72.3636" cy="164.0000" r="6"/>
<circle cx="20.0000" cy="176.0000" r="6"/>
<circle cx="46.1818" cy="176.0000" r="6"/>
<circle cx="72.3636" cy="176.0000" r="6"/>
<circle cx="20.0000" cy="188.0000" r="6"/>
<circle cx="52.7273" cy="188.0000" r="6"/>
<circle cx="72.3636" cy="188.0000" r="6"/>
<circle cx="20.0000" cy="200.0000" r="6"/>
<circle cx="59.2727" cy="200.0000" r="6"/>
<circle cx="72.3636" cy="200.0000" r="6"/>
<circle cx="20.0000" cy="212.0000" r="6"/>
<circle cx="72.3636" cy="212.0000" r="6"/>
<circle cx="98.5455" cy="164.0000" r="6"/>
<circle cx="111.6364" cy="164.0000" r="6"/>
<circle cx="124.7273" cy="164.0000" r="6"/>
<circle cx="137.8182" cy="164.0000" r="6"/>
<circle cx="92.0000" cy="176.0000" r="6"/>
<circle cx="144.3636" cy="176.0000" r="6"/>
<circle cx="92.0000" cy="188.0000" r="6"/>
<circle cx="144.3636" cy="188.0000" r="6"/>
<circle cx="92.0000" cy="200.0000" r="6"/>
<circle cx="144.3636" cy="200.0000" r="6"/>
<circle cx="98.5455" cy="212.0000" r="6"/>
<circle cx="111.6364" cy="212.0000" r="6"/>
<circle cx="124.7273" cy="212.0000" r="6"/>
<circle cx="137.8182" cy="212.0000" r="6"/>
<circle cx="164.0000" cy="164.0000" r="6"/>
<circle cx="183.6364" cy="164.0000" r="6"/>
<circle cx="196.7273" cy="164.0000" r="6"/>
<circle cx="209.8182" cy="164.0000" r="6"/>
<circle cx="164.0000" cy="176.0000" r="6"/>
<circle cx="177.0909" cy="176.0000" r="6"/>
<circle cx="164.0000" cy="188.0000" r="6"/>
<circle cx="164.0000" cy="200.0000" r="6"/>
<circle cx="164.0000" cy="212.0000" r="6"/>
<circle cx="242.5455" cy="164.0000" r="6"/>
<circle cx="255.6364" cy="164.0000" r="6"/>
<circle cx="268.7273" cy="164.0000" r="6"/>
<circle cx="281.8182" cy="164.0000" r="6"/>
<circle cx="236.0000" cy="176.0000" r="6"/>
<circle cx="262.1818" cy="176.0000" r="6"/>
<circle cx="288.3636" cy="176.0000" r="6"/>
<circle cx="236.0000" cy="188.0000" r="6"/>
<circle cx="262.1818" cy="188.0000" r="6"/>
<circle cx="288.3636" cy="188.0000" r="6"/>
<circle cx="236.0000" cy="200.0000" r="6"/>
<circle cx="262.1818" cy="200.0000" r="6"/>
<circle cx="288.3636" cy="200.0000" r="6"/>
<circle cx="236.0000" cy="212.0000" r="6"/>
<circle cx="262.1818" cy="212.0000" r="6"/>
<circle cx="288.3636" cy="212.0000" r="6"/>
<circle cx="321.0909" cy="164.0000" r="6"/>
<circle cx="334.1818" cy="164.0000" r="6"/>
<circle cx="347.2727" cy="164.0000" r="6"/>
<circle cx="353.8182" cy="176.0000" r="6"/>
<circle cx="314.5455" cy="188.0000" r="6"/>
<circle cx="327.6364" cy="188.0000" r="6"/>
<circle cx="340.7273" cy="188.0000" r="6"/>
<circle cx="353.8182" cy="188.0000" r="6"/>
<circle cx="308.0000" cy="200.0000" r="6"/>
<circle cx="353.8182" cy="200.0000" r="6"/>
<circle cx="314.5455" cy="212.0000" r="6"/>
<circle cx="327.6364" cy="212.0000" r="6"/>
<circle cx="340.7273" cy="212.0000" r="6"/>
<circle cx="360.3636" cy="212.0000" r="6"/>
<circle cx="386.5455" cy="140.0000" r="6"/>
<circle cx="399.6364" cy="140.0000" r="6"/>
<circle cx="399.6364" cy="152.0000" r="6"/>
<circle cx="399.6364" cy="164.0000" r="6"/>
<circle cx="399.6364" cy="176.0000" r="6"/>
<circle cx="399.6364" cy="188.0000" r="6"/>
<circle cx="399.6364" cy="200.0000" r="6"/>
<circle cx="386.5455" cy="212.0000" r="6"/>
<circle cx="399.6364" cy="212.0000" r="6"/>
<circle cx="412.7273" cy="212.0000" r="6"/>
<circle cx="563.2727" cy="140.0000" r="6"/>
<circle cx="556.7273" cy="152.0000" r="6"/>
<circle cx="550.1818" cy="164.0000" r="6"/>
<circle cx="550.1818" cy="176.0000" r="6"/>
<circle cx="550.1818" cy="188.0000" r="6"/>
<circle cx="556.7273" cy="200.0000" r="6"/>
<circle cx="563.2727" cy="212.0000" r="6"/>
<circle cx="596.0000" cy="140.0000" r="6"/>
<circle cx="609.0909" cy="140.0000" r="6"/>
<circle cx="622.1818" cy="140.0000" r="6"/>
<circle cx="635.2727" cy="140.0000" r="6"/>
<circle cx="596.0000" cy="152.0000" r="6"/>
<circle cx="648.3636" cy="152.0000" r="6"/>
<circle cx="596.0000" cy="164.0000" r="6"/>
<circle cx="648.3636" cy="164.0000" r="6"/>
<circle cx="596.0000" cy="176.0000" r="6"/>
<circle cx="609.0909" cy="176.0000" r="6"/>
<circle cx="622.1818" cy="176.0000" r="6"/>
<circle cx="635.2727" cy="176.0000" r="6"/>
<circle cx="596.0000" cy="188.0000" r="6"/>
<circle cx="596.0000" cy="200.0000" r="6"/>
<circle cx="596.0000" cy="212.0000" r="6"/>
<circle cx="681.0909" cy="140.0000" r="6"/>
<circle cx="694.1818" cy="140.0000" r="6"/>
<circle cx="707.2727" cy="140.0000" r="6"/>
<circle cx="694.1818" cy="152.0000" r="6"/>
<circle cx="694.1818" cy="164.0000" r="6"/>
<circle cx="694.1818" cy="176.0000" r="6"/>
<circle cx="694.1818" cy="188.0000" r="6"/>
<circle cx="694.1818" cy="200.0000" r="6"/>
<circle cx="681.0909" cy="212.0000" r="6"/>
<circle cx="694.1818" cy="212.0000" r="6"/>
<circle cx="707.2727" cy="212.0000" r="6"/>
<circle cx="746.5455" cy="140.0000" r="6"/>
<circle cx="759.6364" cy="140.0000" r="6"/>
<circle cx="772.7273" cy="140.0000" r="6"/>
<circle cx="785.8182" cy="140.0000" r="6"/>
<circle cx="740.0000" cy="152.0000" r="6"/>
<circle cx="792.3636" cy="152.0000" r="6"/>
<circle cx="740.0000" cy="164.0000" r="6"/>
<circle cx="740.0000" cy="176.0000" r="6"/>
<circle cx="740.0000" cy="188.0000" r="6"/>
<circle cx="740.0000" cy="200.0000" r="6"/>
<circle cx="792.3636" cy="200.0000" r="6"/>
<circle cx="746.5455" cy="212.0000" r="6"/>
<circle cx="759.6364" cy="212.0000" r="6"/>
<circle cx="772.7273" cy="212.0000" r="6"/>
<circle cx="785.8182" cy="212.0000" r="6"/>
<circle cx="831.6364" cy="140.0000" r="6"/>
<circle cx="844.7273" cy="140.0000" r="6"/>
<circle cx="825.0909" cy="152.0000" r="6"/>
<circle cx="851.2727" cy="152.0000" r="6"/>
<circle cx="818.5455" cy="164.0000" r="6"/>
<circle cx="857.8182" cy="164.0000" r="6"/>
<circle cx="812.0000" cy="176.0000" r="6"/>
<circle cx="864.3636" cy="176.0000" r="6"/>
<circle cx="812.0000" cy="188.0000" r="6"/>
<circle cx="825.0909" cy="188.0000" r="6"/>
<circle cx="838.1818" cy="188.0000" r="6"/>
<circle cx="851.2727" cy="188.0000" r="6"/>
<circle cx="864.3636" cy="188.0000" r="6"/>
<circle cx="812.0000" cy="200.0000" r="6"/>
<circle cx="864.3636" cy="200.0000" r="6"/>
<circle cx="812.0000" cy="212.0000" r="6"/>
<circle cx="864.3636" cy="212.0000" r="6"/>
<circle cx="897.0909" cy="140.0000" r="6"/>
<circle cx="903.6364" cy="152.0000" r="6"/>
<circle cx="910.1818" cy="164.0000" r="6"/>
<circle cx="910.1818" cy="176.0000" r="6"/>
<circle cx="910.1818" cy="188.0000" r="6"/>
<circle cx="903.6364" cy="200.0000" r="6"/>
<circle cx="897.0909" cy="212.0000" r="6"/>
<circle cx="25.4545" cy="260.0000" r="6"/>
<circle cx="36.3636" cy="260.0000" r="6"/>
<circle cx="47.2727" cy="260.0000" r="6"/>
<circle cx="58.1818" cy="260.0000" r="6"/>
<circle cx="20.0000" cy="272.0000" r="6"/>
<circle cx="63.6364" cy="272.0000" r="6"/>
<circle cx="20.0000" cy="284.0000" r="6"/>
<circle cx="20.0000" cy="296.0000" r="6"/>
<circle cx="20.0000" cy="308.0000" r="6"/>
<circle cx="20.0000" cy="320.0000" r="6"/>
<circle cx="63.6364" cy="320.0000" r="6"/>
<circle cx="25.4545" cy="332.0000" r="6"/>
<circle cx="36.3636" cy="332.0000" r="6"/>
<circle cx="47.2727" cy="332.0000" r="6"/>
<circle cx="58.1818" cy="332.0000" r="6"/>
<circle cx="85.4545" cy="284.0000" r="6"/>
<circle cx="96.3636" cy="284.0000" r="6"/>
<circle cx="107.2727" cy="284.0000" r="6"/>
<circle cx="118.1818" cy="284.0000" r="6"/>
<circle cx="80.0000" cy="296.0000" r="6"/>
<circle cx="123.6364" cy="296.0000" r="6"/>
<circle cx="80.0000" cy="308.0000" r="6"/>
<circle cx="123.6364" cy="308.0000" r="6"/>
<circle cx="80.0000" cy="320.0000" r="6"/>
<circle cx="123.6364" cy="320.0000" r="6"/>
<circle cx="85.4545" cy="332.0000" r="6"/>
<circle cx="96.3636" cy="332.0000" r="6"/>
<circle cx="107.2727" cy="332.0000" r="6"/>
<circle cx="118.1818" cy="332.0000" r="6"/>
<circle cx="145.4545" cy="284.0000" r="6"/>
<circle cx="156.3636" cy="284.0000" r="6"/>
<circle cx="167.2727" cy="284.0000" r="6"/>
<circle cx="178.1818" cy="284.0000" r="6"/>
<circle cx="140.0000" cy="296.0000" r="6"/>
<circle cx="161.8182" cy="296.0000" r="6"/>
<circle cx="183.6364" cy="296.0000" r="6"/>
<circle cx="140.0000" cy="308.0000" r="6"/>
<circle cx="161.8182" cy="308.0000" r="6"/>
<circle cx="183.6364" cy="308.0000" r="6"/>
<circle cx="140.0000" cy="320.0000" r="6"/>
<circle cx="161.8182" cy="320.0000" r="6"/>
<circle cx="183.6364" cy="320.0000" r="6"/>
<circle cx="140.0000" cy="332.0000" r="6"/>
<circle cx="161.8182" cy="332.0000" r="6"/>
<circle cx="183.6364" cy="332.0000" r="6"/>
<circle cx="200.0000" cy="284.0000" r="6"/>
<circle cx="210.9091" cy="284.0000" r="6"/>
<circle cx="221.8182" cy="284.0000" r="6"/>
<circle cx="232.7273" cy="284.0000" r="6"/>
<circle cx="200.0000" cy="296.0000" r="6"/>
<circle cx="238.1818" cy="296.0000" r="6"/>
<circle cx="200.0000" cy="308.0000" r="6"/>
<circle cx="238.1818" cy="308.0000" r="6"/>
<circle cx="200.0000" cy="320.0000" r="6"/>
<circle cx="238.1818" cy="320.0000" r="6"/>
<circle cx="200.0000" cy="332.0000" r="6"/>
<circle cx="210.9091" cy="332.0000" r="6"/>
<circle cx="221.8182" cy="332.0000" r="6"/>
<circle cx="232.7273" cy="332.0000" r="6"/>
<circle cx="200.0000" cy="344.0000" r="6"/>
<circle cx="200.0000" cy="356.0000" r="6"/>
<circle cx="260.0000" cy="284.0000" r="6"/>
<circle cx="276.3636" cy="284.0000" r="6"/>
<circle cx="287.2727" cy="284.0000" r="6"/>
<circle cx="298.1818" cy="284.0000" r="6"/>
<circle cx="260.0000" cy="296.0000" r="6"/>
<circle cx="270.9091" cy="296.0000" r="6"/>
<circle cx="260.0000" cy="308.0000" r="6"/>
<circle cx="260.0000" cy="320.0000" r="6"/>
<circle cx="260.0000" cy="332.0000" r="6"/>
<circle cx="325.4545" cy="284.0000" r="6"/>
<circle cx="336.3636" cy="284.0000" r="6"/>
<circle cx="347.2727" cy="284.0000" r="6"/>
<circle cx="358.1818" cy="284.0000" r="6"/>
<circle cx="320.0000" cy="296.0000" r="6"/>
<circle cx="363.6364" cy="296.0000" r="6"/>
<circle cx="320.0000" cy="308.0000" r="6"/>
<circle cx="330.9091" cy="308.0000" r="6"/>
<circle cx="341.8182" cy="308.0000" r="6"/>
<circle cx="352.7273" cy="308.0000" r="6"/>
<circle cx="363.6364" cy="308.0000" r="6"/>
<circle cx="320.0000" cy="320.0000" r="6"/>
<circle cx="325.4545" cy="332.0000" r="6"/>
<circle cx="336.3636" cy="332.0000" r="6"/>
<circle cx="347.2727" cy="332.0000" r="6"/>
<circle cx="358.1818" cy="332.0000" r="6"/>
<circle cx="385.4545" cy="284.0000" r="6"/>
<circle cx="396.3636" cy="284.0000" r="6"/>
<circle cx="407.2727" cy="284.0000" r="6"/>
<circle cx="418.1818" cy="284.0000" r="6"/>
<circle cx="380.0000" cy="296.0000" r="6"/>
<circle cx="385.4545" cy="308.0000" r="6"/>
<circle cx="396.3636" cy="308.0000" r="6"/>
<circle cx="407.2727" cy="308.0000" r="6"/>
<circle cx="418.1818" cy="308.0000" r="6"/>
<circle cx="423.6364" cy="320.0000" r="6"/>
<circle cx="385.4545" cy="332.0000" r="6"/>
<circle cx="396.3636" cy="332.0000" r="6"/>
<circle cx="407.2727" cy="332.0000" r="6"/>
<circle cx="418.1818" cy="332.0000" r="6"/>
<circle cx="445.4545" cy="284.0000" r="6"/>
<circle cx="456.3636" cy="284.0000" r="6"/>
<circle cx="467.2727" cy="284.0000" r="6"/>
<circle cx="478.1818" cy="284.0000" r="6"/>
<circle cx="440.0000" cy="296.0000" r="6"/>
<circle cx="445.4545" cy="308.0000" r="6"/>
<circle cx="456.3636" cy="308.0000" r="6"/>
<circle cx="467.2727" cy="308.0000" r="6"/>
<circle cx="478.1818" cy="308.0000" r="6"/>
<circle cx="483.6364" cy="320.0000" r="6"/>
<circle cx="445.4545" cy="332.0000" r="6"/>
<circle cx="456.3636" cy="332.0000" r="6"/>
<circle cx="467.2727" cy="332.0000" r="6"/>
<circle cx="478.1818" cy="332.0000" r="6"/>
<circle cx="505.4545" cy="284.0000" r="6"/>
<circle cx="516.3636" cy="284.0000" r="6"/>
<circle cx="527.2727" cy="284.0000" r="6"/>
<circle cx="538.1818" cy="284.0000" r="6"/>
<circle cx="500.0000" cy="296.0000" r="6"/>
<circle cx="543.6364" cy="296.0000" r="6"/>
<circle cx="500.0000" cy="308.0000" r="6"/>
<circle cx="510.9091" cy="308.0000" r="6"/>
<circle cx="521.8182" cy="308.0000" r="6"/>
<circle cx="532.7273" cy="308.0000" r="6"/>
<circle cx="543.6364" cy="308.0000" r="6"/>
<circle cx="500.0000" cy="320.0000" r="6"/>
<circle cx="505.4545" cy="332.0000" r="6"/>
<circle cx="516.3636" cy="332.0000" r="6"/>
<circle cx="527.2727" cy="332.0000" r="6"/>
<circle cx="538.1818" cy="332.0000" r="6"/>
<circle cx="598.1818" cy="260.0000" r="6"/>
<circle cx="598.1818" cy="272.0000" r="6"/>
<circle cx="565.4545" cy="284.0000" r="6"/>
<circle cx="576.3636" cy="284.0000" r="6"/>
<circle cx="587.2727" cy="284.0000" r="6"/>
<circle cx="598.1818" cy="284.0000" r="6"/>
<circle cx="560.0000" cy="296.0000" r="6"/>
<circle cx="598.1818" cy="296.0000" r="6"/>
<circle cx="560.0000" cy="308.0000" r="6"/>
<circle cx="598.1818" cy="308.0000" r="6"/>
<circle cx="560.0000" cy="320.0000" r="6"/>
<circle cx="598.1818" cy="320.0000" r="6"/>
<circle cx="565.4545" cy="332.0000" r="6"/>
<circle cx="576.3636" cy="332.0000" r="6"/>
<circle cx="587.2727" cy="332.0000" r="6"/>
<circle cx="598.1818" cy="332.0000" r="6"/>
<circle cx="712.7273" cy="260.0000" r="6"/>
<circle cx="707.2727" cy="272.0000" r="6"/>
<circle cx="701.8182" cy="284.0000" r="6"/>
<circle cx="701.8182" cy="296.0000" r="6"/>
<circle cx="701.8182" cy="308.0000" r="6"/>
<circle cx="707.2727" cy="320.0000" r="6"/>
<circle cx="712.7273" cy="332.0000" r="6"/>
<circle cx="740.0000" cy="260.0000" r="6"/>
<circle cx="750.9091" cy="260.0000" r="6"/>
<circle cx="761.8182" cy="260.0000" r="6"/>
<circle cx="772.7273" cy="260.0000" r="6"/>
<circle cx="783.6364" cy="260.0000" r="6"/>
<circle cx="740.0000" cy="272.0000" r="6"/>
<circle cx="740.0000" cy="284.0000" r="6"/>
<circle cx="740.0000" cy="296.0000" r="6"/>
<circle cx="750.9091" cy="296.0000" r="6"/>
<circle cx="761.8182" cy="296.0000" r="6"/>
<circle cx="772.7273" cy="296.0000" r="6"/>
<circle cx="740.0000" cy="308.0000" r="6"/>
<circle cx="740.0000" cy="320.0000" r="6"/>
<circle cx="740.0000" cy="332.0000" r="6"/>
<circle cx="750.9091" cy="332.0000" r="6"/>
<circle cx="761.8182" cy="332.0000" r="6"/>
<circle cx="772.7273" cy="332.0000" r="6"/>
<circle cx="783.6364" cy="332.0000" r="6"/>
<circle cx="800.0000" cy="260.0000" r="6"/>
<circle cx="800.0000" cy="272.0000" r="6"/>
<circle cx="800.0000" cy="284.0000" r="6"/>
<circle cx="800.0000" cy="296.0000" r="6"/>
<circle cx="800.0000" cy="308.0000" r="6"/>
<circle cx="800.0000" cy="320.0000" r="6"/>
<circle cx="800.0000" cy="332.0000" r="6"/>
<circle cx="810.9091" cy="332.0000" r="6"/>
<circle cx="821.8182" cy="332.0000" r="6"/>
<circle cx="832.7273" cy="332.0000" r="6"/>
<circle cx="843.6364" cy="332.0000" r="6"/>
<circle cx="870.9091" cy="260.0000" r="6"/>
<circle cx="881.8182" cy="260.0000" r="6"/>
<circle cx="892.7273" cy="260.0000" r="6"/>
<circle cx="881.8182" cy="272.0000" r="6"/>
<circle cx="881.8182" cy="284.0000" r="6"/>
<circle cx="881.8182" cy="296.0000" r="6"/>
<circle cx="881.8182" cy="308.0000" r="6"/>
<circle cx="881.8182" cy="320.0000" r="6"/>
<circle cx="870.9091" cy="332.0000" r="6"/>
<circle cx="881.8182" cy="332.0000" r="6"/>
<circle cx="892.7273" cy="332.0000" r="6"/>
<circle cx="920.0000" cy="260.0000" r="6"/>
<circle cx="930.9091" cy="260.0000" r="6"/>
<circle cx="941.8182" cy="260.0000" r="6"/>
<circle cx="952.7273" cy="260.0000" r="6"/>
<circle cx="963.6364" cy="260.0000" r="6"/>
<circle cx="941.8182" cy="272.0000" r="6"/>
<circle cx="941.8182" cy="284.0000" r="6"/>
<circle cx="941.8182" cy="296.0000" r="6"/>
<circle cx="941.8182" cy="308.0000" r="6"/>
<circle cx="941.8182" cy="320.0000" r="6"/>
<circle cx="941.8182" cy="332.0000" r="6"/>
<circle cx="980.0000" cy="260.0000" r="6"/>
<circle cx="990.9091" cy="260.0000" r="6"/>
<circle cx="1001.8182" cy="260.0000" r="6"/>
<circle cx="1012.7273" cy="260.0000" r="6"/>
<circle cx="1023.6364" cy="260.0000" r="6"/>
<circle cx="980.0000" cy="272.0000" r="6"/>
<circle cx="980.0000" cy="284.0000" r="6"/>
<circle cx="980.0000" cy="296.0000" r="6"/>
<circle cx="990.9091" cy="296.0000" r="6"/>
<circle cx="1001.8182" cy="296.0000" r="6"/>
<circle cx="1012.7273" cy="296.0000" r="6"/>
<circle cx="980.0000" cy="308.0000" r="6"/>
<circle cx="980.0000" cy="320.0000" r="6"/>
<circle cx="980.0000" cy="332.0000" r="6"/>
<circle cx="990.9091" cy="332.0000" r="6"/>
<circle cx="1001.8182" cy="332.0000" r="6"/>
<circle cx="1012.7273" cy="332.0000" r="6"/>
<circle cx="1023.6364" cy="332.0000" r="6"/>
<circle cx="1050.9091" cy="260.0000" r="6"/>
<circle cx="1056.3636" cy="272.0000" r="6"/>
<circle cx="1061.8182" cy="284.0000" r="6"/>
<circle cx="1061.8182" cy="296.0000" r="6"/>
<circle cx="1061.8182" cy="308.0000" r="6"/>
<circle cx="1056.3636" cy="320.0000" r="6"/>
<circle cx="1050.9091" cy="332.0000" r="6"/>
<circle cx="20.0000" cy="380.0000" r="6"/>
<circle cx="50.8021" cy="380.0000" r="6"/>
<circle cx="20.0000" cy="392.0000" r="6"/>
<circle cx="50.8021" cy="392.0000" r="6"/>
<circle cx="20.0000" cy="404.0000" r="6"/>
<circle cx="50.8021" cy="404.0000" r="6"/>
<circle cx="20.0000" cy="416.0000" r="6"/>
<circle cx="50.8021" cy="416.0000" r="6"/>
<circle cx="20.0000" cy="428.0000" r="6"/>
<circle cx="50.8021" cy="428.0000" r="6"/>
<circle cx="20.0000" cy="440.0000" r="6"/>
<circle cx="50.8021" cy="440.0000" r="6"/>
<circle cx="23.8503" cy="452.0000" r="6"/>
<circle cx="31.5508" cy="452.0000" r="6"/>
<circle cx="39.2513" cy="452.0000" r="6"/>
<circle cx="46.9519" cy="452.0000" r="6"/>
<circle cx="66.2032" cy="380.0000" r="6"/>
<circle cx="73.9037" cy="380.0000" r="6"/>
<circle cx="73.9037" cy="392.0000" r="6"/>
<circle cx="73.9037" cy="404.0000" r="6"/>
<circle cx="73.9037" cy="416.0000" r="6"/>
<circle cx="73.9037" cy="428.0000" r="6"/>
<circle cx="73.9037" cy="440.0000" r="6"/>
<circle cx="66.2032" cy="452.0000" r="6"/>
<circle cx="73.9037" cy="452.0000" r="6"/>
<circle cx="81.6043" cy="452.0000" r="6"/>
<circle cx="112.4064" cy="380.0000" r="6"/>
<circle cx="112.4064" cy="392.0000" r="6"/>
<circle cx="104.7059" cy="404.0000" r="6"/>
<circle cx="112.4064" cy="404.0000" r="6"/>
<circle cx="120.1070" cy="404.0000" r="6"/>
<circle cx="127.8075" cy="404.0000" r="6"/>
<circle cx="112.4064" cy="416.0000" r="6"/>
<circle cx="112.4064" cy="428.0000" r="6"/>
<circle cx="112.4064" cy="440.0000" r="6"/>
<circle cx="116.2567" cy="452.0000" r="6"/>
<circle cx="123.9572" cy="452.0000" r="6"/>
<circle cx="131.6578" cy="452.0000" r="6"/>
<circle cx="147.0588" cy="404.0000" r="6"/>
<circle cx="158.6096" cy="404.0000" r="6"/>
<circle cx="166.3102" cy="404.0000" r="6"/>
<circle cx="174.0107" cy="404.0000" r="6"/>
<circle cx="147.0588" cy="416.0000" r="6"/>
<circle cx="154.7594" cy="416.0000" r="6"/>
<circle cx="147.0588" cy="428.0000" r="6"/>
<circle cx="147.0588" cy="440.0000" r="6"/>
<circle cx="147.0588" cy="452.0000" r="6"/>
<circle cx="197.1123" cy="404.0000" r="6"/>
<circle cx="204.8128" cy="404.0000" r="6"/>
<circle cx="212.5134" cy="404.0000" r="6"/>
<circle cx="216.3636" cy="416.0000" r="6"/>
<circle cx="193.2620" cy="428.0000" r="6"/>
<circle cx="200.9626" cy="428.0000" r="6"/>
<circle cx="208.6631" cy="428.0000" r="6"/>
<circle cx="216.3636" cy="428.0000" r="6"/>
<circle cx="189.4118" cy="440.0000" r="6"/>
<circle cx="216.3636" cy="440.0000" r="6"/>
<circle cx="193.2620" cy="452.0000" r="6"/>
<circle cx="200.9626" cy="452.0000" r="6"/>
<circle cx="208.6631" cy="452.0000" r="6"/>
<circle cx="220.2139" cy="452.0000" r="6"/>
<circle cx="277.9679" cy="380.0000" r="6"/>
<circle cx="285.6684" cy="380.0000" r="6"/>
<circle cx="293.3690" cy="380.0000" r="6"/>
<circle cx="301.0695" cy="380.0000" r="6"/>
<circle cx="274.1176" cy="392.0000" r="6"/>
<circle cx="304.9198" cy="392.0000" r="6"/>
<circle cx="274.1176" cy="404.0000" r="6"/>
<circle cx="274.1176" cy="416.0000" r="6"/>
<circle cx="274.1176" cy="428.0000" r="6"/>
<circle cx="274.1176" cy="440.0000" r="6"/>
<circle cx="304.9198" cy="440.0000" r="6"/>
<circle cx="277.9679" cy="452.0000" r="6"/>
<circle cx="285.6684" cy="452.0000" r="6"/>
<circle cx="293.3690" cy="452.0000" r="6"/>
<circle cx="301.0695" cy="452.0000" r="6"/>
<circle cx="320.3209" cy="404.0000" r="6"/>
<circle cx="328.0214" cy="404.0000" r="6"/>
<circle cx="335.7219" cy="404.0000" r="6"/>
<circle cx="343.4225" cy="404.0000" r="6"/>
<circle cx="316.4706" cy="416.0000" r="6"/>
<circle cx="347.2727" cy="416.0000" r="6"/>
<circle cx="316.4706" cy="428.0000" r="6"/>
<circle cx="347.2727" cy="428.0000" r="6"/>
<circle cx="316.4706" cy="440.0000" r="6"/>
<circle cx="347.2727" cy="440.0000" r="6"/>
<circle cx="320.3209" cy="452.0000" r="6"/>
<circle cx="328.0214" cy="452.0000" r="6"/>
<circle cx="335.7219" cy="452.0000" r="6"/>
<circle cx="343.4225" cy="452.0000" r="6"/>
<circle cx="362.6738" cy="404.0000" r="6"/>
<circle cx="370.3743" cy="404.0000" r="6"/>
<circle cx="378.0749" cy="404.0000" r="6"/>
<circle cx="385.7754" cy="404.0000" r="6"/>
<circle cx="358.8235" cy="416.0000" r="6"/>
<circle cx="374.2246" cy="416.0000" r="6"/>
<circle cx="389.6257" cy="416.0000" r="6"/>
<circle cx="358.8235" cy="428.0000" r="6"/>
<circle cx="374.2246" cy="428.0000" r="6"/>
<circle cx="389.6257" cy="428.0000" r="6"/>
<circle cx="358.8235" cy="440.0000" r="6"/>
<circle cx="374.2246" cy="440.0000" r="6"/>
<circle cx="389.6257" cy="440.0000" r="6"/>
<circle cx="358.8235" cy="452.0000" r="6"/>
<circle cx="374.2246" cy="452.0000" r="6"/>
<circle cx="389.6257" cy="452.0000" r="6"/>
<circle cx="401.1765" cy="404.0000" r="6"/>
<circle cx="408.8770" cy="404.0000" r="6"/>
<circle cx="416.5775" cy="404.0000" r="6"/>
<circle cx="424.2781" cy="404.0000" r="6"/>
<circle cx="401.1765" cy="416.0000" r="6"/>
<circle cx="428.1283" cy="416.0000" r="6"/>
<circle cx="401.1765" cy="428.0000" r="6"/>
<circle cx="428.1283" cy="428.0000" r="6"/>
<circle cx="401.1765" cy="440.0000" r="6"/>
<circle cx="428.1283" cy="440.0000" r="6"/>
<circle cx="401.1765" cy="452.0000" r="6"/>
<circle cx="408.8770" cy="452.0000" r="6"/>
<circle cx="416.5775" cy="452.0000" r="6"/>
<circle cx="424.2781" cy="452.0000" r="6"/>
<circle cx="401.1765" cy="464.0000" r="6"/>
<circle cx="401.1765" cy="476.0000" r="6"/>
<circle cx="443.5294" cy="404.0000" r="6"/>
<circle cx="455.0802" cy="404.0000" r="6"/>
<circle cx="462.7807" cy="404.0000" r="6"/>
<circle cx="470.4813" cy="404.0000" r="6"/>
<circle cx="443.5294" cy="416.0000" r="6"/>
<circle cx="451.2299" cy="416.0000" r="6"/>
<circle cx="443.5294" cy="428.0000" r="6"/>
<circle cx="443.5294" cy="440.0000" r="6"/>
<circle cx="443.5294" cy="452.0000" r="6"/>
<circle cx="489.7326" cy="404.0000" r="6"/>
<circle cx="497.4332" cy="404.0000" r="6"/>
<circle cx="505.1337" cy="404.0000" r="6"/>
<circle cx="512.8342" cy="404.0000" r="6"/>
<circle cx="485.8824" cy="416.0000" r="6"/>
<circle cx="516.6845" cy="416.0000" r="6"/>
<circle cx="485.8824" cy="428.0000" r="6"/>
<circle cx="493.5829" cy="428.0000" r="6"/>
<circle cx="501.2834" cy="428.0000" r="6"/>
<circle cx="508.9840" cy="428.0000" r="6"/>
<circle cx="516.6845" cy="428.0000" r="6"/>
<circle cx="485.8824" cy="440.0000" r="6"/>
<circle cx="489.7326" cy="452.0000" r="6"/>
<circle cx="497.4332" cy="452.0000" r="6"/>
<circle cx="505.1337" cy="452.0000" r="6"/>
<circle cx="512.8342" cy="452.0000" r="6"/>
<circle cx="532.0856" cy="404.0000" r="6"/>
<circle cx="539.7861" cy="404.0000" r="6"/>
<circle cx="547.4866" cy="404.0000" r="6"/>
<circle cx="555.1872" cy="404.0000" r="6"/>
<circle cx="528.2353" cy="416.0000" r="6"/>
<circle cx="532.0856" cy="428.0000" r="6"/>
<circle cx="539.7861" cy="428.0000" r="6"/>
<circle cx="547.4866" cy="428.0000" r="6"/>
<circle cx="555.1872" cy="428.0000" r="6"/>
<circle cx="559.0374" cy="440.0000" r="6"/>
<circle cx="532.0856" cy="452.0000" r="6"/>
<circle cx="539.7861" cy="452.0000" r="6"/>
<circle cx="547.4866" cy="452.0000" r="6"/>
<circle cx="555.1872" cy="452.0000" r="6"/>
<circle cx="574.4385" cy="404.0000" r="6"/>
<circle cx="582.1390" cy="404.0000" r="6"/>
<circle cx="589.8396" cy="404.0000" r="6"/>
<circle cx="597.5401" cy="404.0000" r="6"/>
<circle cx="570.5882" cy="416.0000" r="6"/>
<circle cx="574.4385" cy="428.0000" r="6"/>
<circle cx="582.1390" cy="428.0000" r="6"/>
<circle cx="589.8396" cy="428.0000" r="6"/>
<circle cx="597.5401" cy="428.0000" r="6"/>
<circle cx="601.3904" cy="440.0000" r="6"/>
<circle cx="574.4385" cy="452.0000" r="6"/>
<circle cx="582.1390" cy="452.0000" r="6"/>
<circle cx="589.8396" cy="452.0000" r="6"/>
<circle cx="597.5401" cy="452.0000" r="6"/>
<circle cx="616.7914" cy="404.0000" r="6"/>
<circle cx="624.4920" cy="404.0000" r="6"/>
<circle cx="632.1925" cy="404.0000" r="6"/>
<circle cx="639.8930" cy="404.0000" r="6"/>
<circle cx="612.9412" cy="416.0000" r="6"/>
<circle cx="643.7433" cy="416.0000" r="6"/>
<circle cx="612.9412" cy="428.0000" r="6"/>
<circle cx="620.6417" cy="428.0000" r="6"/>
<circle cx="628.3422" cy="428.0000" r="6"/>
<circle cx="636.0428" cy="428.0000" r="6"/>
<circle cx="643.7433" cy="428.0000" r="6"/>
<circle cx="612.9412" cy="440.0000" r="6"/>
<circle cx="616.7914" cy="452.0000" r="6"/>
<circle cx="624.4920" cy="452.0000" r="6"/>
<circle cx="632.1925" cy="452.0000" r="6"/>
<circle cx="639.8930" cy="452.0000" r="6"/>
<circle cx="682.2460" cy="380.0000" r="6"/>
<circle cx="682.2460" cy="392.0000" r="6"/>
<circle cx="659.1444" cy="404.0000" r="6"/>
<circle cx="666.8449" cy="404.0000" r="6"/>
<circle cx="674.5455" cy="404.0000" r="6"/>
<circle cx="682.2460" cy="404.0000" r="6"/>
<circle cx="655.2941" cy="416.0000" r="6"/>
<circle cx="682.2460" cy="416.0000" r="6"/>
<circle cx="655.2941" cy="428.0000" r="6"/>
<circle cx="682.2460" cy="428.0000" r="6"/>
<circle cx="655.2941" cy="440.0000" r="6"/>
<circle cx="682.2460" cy="440.0000" r="6"/>
<circle cx="659.1444" cy="452.0000" r="6"/>
<circle cx="666.8449" cy="452.0000" r="6"/>
<circle cx="674.5455" cy="452.0000" r="6"/>
<circle cx="682.2460" cy="452.0000" r="6"/>
<circle cx="39.6364" cy="500.0000" r="6"/>
<circle cx="52.7273" cy="500.0000" r="6"/>
<circle cx="26.5455" cy="512.0000" r="6"/>
<circle cx="65.8182" cy="512.0000" r="6"/>
<circle cx="20.0000" cy="524.0000" r="6"/>
<circle cx="72.3636" cy="524.0000" r="6"/>
<circle cx="20.0000" cy="536.0000" r="6"/>
<circle cx="72.3636" cy="536.0000" r="6"/>
<circle cx="20.0000" cy="548.0000" r="6"/>
<circle cx="72.3636" cy="548.0000" r="6"/>
<circle cx="26.5455" cy="560.0000" r="6"/>
<circle cx="65.8182" cy="560.0000" r="6"/>
<circle cx="39.6364" cy="572.0000" r="6"/>
<circle cx="52.7273" cy="572.0000" r="6"/>
<circle cx="105.0909" cy="560.0000" r="6"/>
<circle cx="118.1818" cy="560.0000" r="6"/>
<circle cx="105.0909" cy="572.0000" r="6"/>
<circle cx="118.1818" cy="572.0000" r="6"/>
<circle cx="177.0909" cy="560.0000" r="6"/>
<circle cx="190.1818" cy="560.0000" r="6"/>
<circle cx="177.0909" cy="572.0000" r="6"/>
<circle cx="190.1818" cy="572.0000" r="6"/>
<circle cx="249.0909" cy="560.0000" r="6"/>
<circle cx="262.1818" cy="560.0000" r="6"/>
<circle cx="249.0909" cy="572.0000" r="6"/>
<circle cx="262.1818" cy="572.0000" r="6"/>
<circle cx="321.0909" cy="560.0000" r="6"/>
<circle cx="334.1818" cy="560.0000" r="6"/>
<circle cx="321.0909" cy="572.0000" r="6"/>
<circle cx="334.1818" cy="572.0000" r="6"/>
<circle cx="406.1818" cy="500.0000" r="6"/>
<circle cx="393.0909" cy="512.0000" r="6"/>
<circle cx="406.1818" cy="512.0000" r="6"/>
<circle cx="406.1818" cy="524.0000" r="6"/>
<circle cx="406.1818" cy="536.0000" r="6"/>
<circle cx="406.1818" cy="548.0000" r="6"/>
<circle cx="406.1818" cy="560.0000" r="6"/>
<circle cx="393.0909" cy="572.0000" r="6"/>
<circle cx="406.1818" cy="572.0000" r="6"/>
<circle cx="419.2727" cy="572.0000" r="6"/>
<circle cx="465.0909" cy="560.0000" r="6"/>
<circle cx="478.1818" cy="560.0000" r="6"/>
<circle cx="465.0909" cy="572.0000" r="6"/>
<circle cx="478.1818" cy="572.0000" r="6"/>
<circle cx="537.0909" cy="560.0000" r="6"/>
<circle cx="550.1818" cy="560.0000" r="6"/>
<circle cx="537.0909" cy="572.0000" r="6"/>
<circle cx="550.1818" cy="572.0000" r="6"/>
<circle cx="609.0909" cy="560.0000" r="6"/>
<circle cx="622.1818" cy="560.0000" r="6"/>
<circle cx="609.0909" cy="572.0000" r="6"/>
<circle cx="622.1818" cy="572.0000" r="6"/>
<circle cx="681.0909" cy="560.0000" r="6"/>
<circle cx="694.1818" cy="560.0000" r="6"/>
<circle cx="681.0909" cy="572.0000" r="6"/>
<circle cx="694.1818" cy="572.0000" r="6"/>
<circle cx="746.5455" cy="500.0000" r="6"/>
<circle cx="759.6364" cy="500.0000" r="6"/>
<circle cx="772.7273" cy="500.0000" r="6"/>
<circle cx="785.8182" cy="500.0000" r="6"/>
<circle cx="740.0000" cy="512.0000" r="6"/>
<circle cx="792.3636" cy="512.0000" r="6"/>
<circle cx="792.3636" cy="524.0000" r="6"/>
<circle cx="779.2727" cy="536.0000" r="6"/>
<circle cx="766.1818" cy="548.0000" r="6"/>
<circle cx="753.0909" cy="560.0000" r="6"/>
<circle cx="740.0000" cy="572.0000" r="6"/>
<circle cx="753.0909" cy="572.0000" r="6"/>
<circle cx="766.1818" cy="572.0000" r="6"/>
<circle cx="779.2727" cy="572.0000" r="6"/>
<circle cx="792.3636" cy="572.0000" r="6"/>
<circle cx="825.0909" cy="560.0000" r="6"/>
<circle cx="838.1818" cy="560.0000" r="6"/>
<circle cx="825.0909" cy="572.0000" r="6"/>
<circle cx="838.1818" cy="572.0000" r="6"/>
<circle cx="897.0909" cy="560.0000" r="6"/>
<circle cx="910.1818" cy="560.0000" r="6"/>
<circle cx="897.0909" cy="572.0000" r="6"/>
<circle cx="910.1818" cy="572.0000" r="6"/>
<circle cx="969.0909" cy="560.0000" r="6"/>
<circle cx="982.1818" cy="560.0000" r="6"/>
<circle cx="969.0909" cy="572.0000" r="6"/>
<circle cx="982.1818" cy="572.0000" r="6"/>
<circle cx="1041.0909" cy="560.0000" r="6"/>
<circle cx="1054.1818" cy="560.0000" r="6"/>
<circle cx="1041.0909" cy="572.0000" r="6"/>
<circle cx="1054.1818" cy="572.0000" r="6"/>
<circle cx="1119.6364" cy="500.0000" r="6"/>
<circle cx="1132.7273" cy="500.0000" r="6"/>
<circle cx="1106.5455" cy="512.0000" r="6"/>
<circle cx="1145.8182" cy="512.0000" r="6"/>
<circle cx="1100.0000" cy="524.0000" r="6"/>
<circle cx="1152.3636" cy="524.0000" r="6"/>
<circle cx="1100.0000" cy="536.0000" r="6"/>
<circle cx="1152.3636" cy="536.0000" r="6"/>
<circle cx="1100.0000" cy="548.0000" r="6"/>
<circle cx="1152.3636" cy="548.0000" r="6"/>
<circle cx="1106.5455" cy="560.0000" r="6"/>
<circle cx="1145.8182" cy="560.0000" r="6"/>
<circle cx="1119.6364" cy="572.0000" r="6"/>
<circle cx="1132.7273" cy="572.0000" r="6"/>
<circle cx="1185.0909" cy="560.0000" r="6"/>
<circle cx="1198.1818" cy="560.0000" r="6"/>
<circle cx="1185.0909" cy="572.0000" r="6"/>
<circle cx="1198.1818" cy="572.0000" r="6"/>
<circle cx="33.0909" cy="680.0000" r="6"/>
<circle cx="46.1818" cy="680.0000" r="6"/>
<circle cx="33.0909" cy="692.0000" r="6"/>
<circle cx="46.1818" cy="692.0000" r="6"/>
<circle cx="105.0909" cy="680.0000" r="6"/>
<circle cx="118.1818" cy="680.0000" r="6"/>
<circle cx="105.0909" cy="692.0000" r="6"/>
<circle cx="118.1818" cy="692.0000" r="6"/>
<circle cx="177.0909" cy="680.0000" r="6"/>
<circle cx="190.1818" cy="680.0000" r="6"/>
<circle cx="177.0909" cy="692.0000" r="6"/>
<circle cx="190.1818" cy="692.0000" r="6"/>
<circle cx="262.1818" cy="620.0000" r="6"/>
<circle cx="249.0909" cy="632.0000" r="6"/>
<circle cx="262.1818" cy="632.0000" r="6"/>
<circle cx="262.1818" cy="644.0000" r="6"/>
<circle cx="262.1818" cy="656.0000" r="6"/>
<circle cx="262.1818" cy="668.0000" r="6"/>
<circle cx="262.1818" cy="680.0000" r="6"/>
<circle cx="249.0909" cy="692.0000" r="6"/>
<circle cx="262.1818" cy="692.0000" r="6"/>
<circle cx="275.2727" cy="692.0000" r="6"/>
<circle cx="321.0909" cy="680.0000" r="6"/>
<circle cx="334.1818" cy="680.0000" r="6"/>
<circle cx="321.0909" cy="692.0000" r="6"/>
<circle cx="334.1818" cy="692.0000" r="6"/>
<circle cx="393.0909" cy="680.0000" r="6"/>
<circle cx="406.1818" cy="680.0000" r="6"/>
<circle cx="393.0909" cy="692.0000" r="6"/>
<circle cx="406.1818" cy="692.0000" r="6"/>
<circle cx="465.0909" cy="680.0000" r="6"/>
<circle cx="478.1818" cy="680.0000" r="6"/>
<circle cx="465.0909" cy="692.0000" r="6"/>
<circle cx="478.1818" cy="692.0000" r="6"/>
<circle cx="537.0909" cy="680.0000" r="6"/>
<circle cx="550.1818" cy="680.0000" r="6"/>
<circle cx="537.0909" cy="692.0000" r="6"/>
<circle cx="550.1818" cy="692.0000" r="6"/>
<circle cx="602.5455" cy="620.0000" r="6"/>
<circle cx="615.6364" cy="620.0000" r="6"/>
<circle cx="628.7273" cy="620.0000" r="6"/>
<circle cx="641.8182" cy="620.0000" r="6"/>
<circle cx="596.0000" cy="632.0000" r="6"/>
<circle cx="648.3636" cy="632.0000" r="6"/>
<circle cx="648.3636" cy="644.0000" r="6"/>
<circle cx="635.2727" cy="656.0000" r="6"/>
<circle cx="622.1818" cy="668.0000" r="6"/>
<circle cx="609.0909" cy="680.0000" r="6"/>
<circle cx="596.0000" cy="692.0000" r="6"/>
<circle cx="609.0909" cy="692.0000" r="6"/>
<circle cx="622.1818" cy="692.0000" r="6"/>
<circle cx="635.2727" cy="692.0000" r="6"/>
<circle cx="648.3636" cy="692.0000" r="6"/>
<circle cx="681.0909" cy="680.0000" r="6"/>
<circle cx="694.1818" cy="680.0000" r="6"/>
<circle cx="681.0909" cy="692.0000" r="6"/>
<circle cx="694.1818" cy="692.0000" r="6"/>
<circle cx="753.0909" cy="680.0000" r="6"/>
<circle cx="766.1818" cy="680.0000" r="6"/>
<circle cx="753.0909" cy="692.0000" r="6"/>
<circle cx="766.1818" cy="692.0000" r="6"/>
<circle cx="825.0909" cy="680.0000" r="6"/>
<circle cx="838.1818" cy="680.0000" r="6"/>
<circle cx="825.0909" cy="692.0000" r="6"/>
<circle cx="838.1818" cy="692.0000" r="6"/>
<circle cx="897.0909" cy="680.0000" r="6"/>
<circle cx="910.1818" cy="680.0000" r="6"/>
<circle cx="897.0909" cy="692.0000" r="6"/>
<circle cx="910.1818" cy="692.0000" r="6"/>
<circle cx="975.6364" cy="620.0000" r="6"/>
<circle cx="988.7273" cy="620.0000" r="6"/>
<circle cx="962.5455" cy="632.0000" r="6"/>
<circle cx="1001.8182" cy="632.0000" r="6"/>
<circle cx="956.0000" cy="644.0000" r="6"/>
<circle cx="1008.3636" cy="644.0000" r="6"/>
<circle cx="956.0000" cy="656.0000" r="6"/>
<circle cx="1008.3636" cy="656.0000" r="6"/>
<circle cx="956.0000" cy="668.0000" r="6"/>
<circle cx="1008.3636" cy="668.0000" r="6"/>
<circle cx="962.5455" cy="680.0000" r="6"/>
<circle cx="1001.8182" cy="680.0000" r="6"/>
<circle cx="975.6364" cy="692.0000" r="6"/>
<circle cx="988.7273" cy="692.0000" r="6"/>
<circle cx="1041.0909" cy="680.0000" r="6"/>
<circle cx="1054.1818" cy="680.0000" r="6"/>
<circle cx="1041.0909" cy="692.0000" r="6"/>
<circle cx="1054.1818" cy="692.0000" r="6"/>
<circle cx="1113.0909" cy="680.0000" r="6"/>
<circle cx="1126.1818" cy="680.0000" r="6"/>
<circle cx="1113.0909" cy="692.0000" r="6"/>
<circle cx="1126.1818" cy="692.0000" r="6"/>
<circle cx="1185.0909" cy="680.0000" r="6"/>
<circle cx="1198.1818" cy="680.0000" r="6"/>
<circle cx="1185.0909" cy="692.0000" r="6"/>
<circle cx="1198.1818" cy="692.0000" r="6"/>
<circle cx="33.0909" cy="800.0000" r="6"/>
<circle cx="46.1818" cy="800.0000" r="6"/>
<circle cx="33.0909" cy="812.0000" r="6"/>
<circle cx="46.1818" cy="812.0000" r="6"/>
<circle cx="118.1818" cy="740.0000" r="6"/>
<circle cx="105.0909" cy="752.0000" r="6"/>
<circle cx="118.1818" cy="752.0000" r="6"/>
<circle cx="118.1818" cy="764.0000" r="6"/>
<circle cx="118.1818" cy="776.0000" r="6"/>
<circle cx="118.1818" cy="788.0000" r="6"/>
<circle cx="118.1818" cy="800.0000" r="6"/>
<circle cx="105.0909" cy="812.0000" r="6"/>
<circle cx="118.1818" cy="812.0000" r="6"/>
<circle cx="131.2727" cy="812.0000" r="6"/>
<circle cx="177.0909" cy="800.0000" r="6"/>
<circle cx="190.1818" cy="800.0000" r="6"/>
<circle cx="177.0909" cy="812.0000" r="6"/>
<circle cx="190.1818" cy="812.0000" r="6"/>
<circle cx="249.0909" cy="800.0000" r="6"/>
<circle cx="262.1818" cy="800.0000" r="6"/>
<circle cx="249.0909" cy="812.0000" r="6"/>
<circle cx="262.1818" cy="812.0000" r="6"/>
<circle cx="321.0909" cy="800.0000" r="6"/>
<circle cx="334.1818" cy="800.0000" r="6"/>
<circle cx="321.0909" cy="812.0000" r="6"/>
<circle cx="334.1818" cy="812.0000" r="6"/>
<circle cx="393.0909" cy="800.0000" r="6"/>
<circle cx="406.1818" cy="800.0000" r="6"/>
<circle cx="393.0909" cy="812.0000" r="6"/>
<circle cx="406.1818" cy="812.0000" r="6"/>
<circle cx="458.5455" cy="740.0000" r="6"/>
<circle cx="471.6364" cy="740.0000" r="6"/>
<circle cx="484.7273" cy="740.0000" r="6"/>
<circle cx="497.8182" cy="740.0000" r="6"/>
<circle cx="452.0000" cy="752.0000" r="6"/>
<circle cx="504.3636" cy="752.0000" r="6"/>
<circle cx="504.3636" cy="764.0000" r="6"/>
<circle cx="491.2727" cy="776.0000" r="6"/>
<circle cx="478.1818" cy="788.0000" r="6"/>
<circle cx="465.0909" cy="800.0000" r="6"/>
<circle cx="452.0000" cy="812.0000" r="6"/>
<circle cx="465.0909" cy="812.0000" r="6"/>
<circle cx="478.1818" cy="812.0000" r="6"/>
<circle cx="491.2727" cy="812.0000" r="6"/>
<circle cx="504.3636" cy="812.0000" r="6"/>
<circle cx="537.0909" cy="800.0000" r="6"/>
<circle cx="550.1818" cy="800.0000" r="6"/>
<circle cx="537.0909" cy="812.0000" r="6"/>
<circle cx="550.1818" cy="812.0000" r="6"/>
<circle cx="609.0909" cy="800.0000" r="6"/>
<circle cx="622.1818" cy="800.0000" r="6"/>
<circle cx="609.0909" cy="812.0000" r="6"/>
<circle cx="622.1818" cy="812.0000" r="6"/>
<circle cx="681.0909" cy="800.0000" r="6"/>
<circle cx="694.1818" cy="800.0000" r="6"/>
<circle cx="681.0909" cy="812.0000" r="6"/>
<circle cx="694.1818" cy="812.0000" r="6"/>
<circle cx="753.0909" cy="800.0000" r="6"/>
<circle cx="766.1818" cy="800.0000" r="6"/>
<circle cx="753.0909" cy="812.0000" r="6"/>
<circle cx="766.1818" cy="812.0000" r="6"/>
<circle cx="831.6364" cy="740.0000" r="6"/>
<circle cx="844.7273" cy="740.0000" r="6"/>
<circle cx="818.5455" cy="752.0000" r="6"/>
<circle cx="857.8182" cy="752.0000" r="6"/>
<circle cx="812.0000" cy="764.0000" r="6"/>
<circle cx="864.3636" cy="764.0000" r="6"/>
<circle cx="812.0000" cy="776.0000" r="6"/>
<circle cx="864.3636" cy="776.0000" r="6"/>
<circle cx="812.0000" cy="788.0000" r="6"/>
<circle cx="864.3636" cy="788.0000" r="6"/>
<circle cx="818.5455" cy="800.0000" r="6"/>
<circle cx="857.8182" cy="800.0000" r="6"/>
<circle cx="831.6364" cy="812.0000" r="6"/>
<circle cx="844.7273" cy="812.0000" r="6"/>
<circle cx="897.0909" cy="800.0000" r="6"/>
<circle cx="910.1818" cy="800.0000" r="6"/>
<circle cx="897.0909" cy="812.0000" r="6"/>
<circle cx="910.1818" cy="812.0000" r="6"/>
<circle cx="969.0909" cy="800.0000" r="6"/>
<circle cx="982.1818" cy="800.0000" r="6"/>
<circle cx="969.0909" cy="812.0000" r="6"/>
<circle cx="982.1818" cy="812.0000" r="6"/>
<circle cx="1041.0909" cy="800.0000" r="6"/>
<circle cx="1054.1818" cy="800.0000" r="6"/>
<circle cx="1041.0909" cy="812.0000" r="6"/>
<circle cx="1054.1818" cy="812.0000" r="6"/>
<circle cx="1113.0909" cy="800.0000" r="6"/>
<circle cx="1126.1818" cy="800.0000" r="6"/>
<circle cx="1113.0909" cy="812.0000" r="6"/>
<circle cx="1126.1818" cy="812.0000" r="6"/>
<circle cx="1198.1818" cy="740.0000" r="6"/>
<circle cx="1185.0909" cy="752.0000" r="6"/>
<circle cx="1198.1818" cy="752.0000" r="6"/>
<circle cx="1198.1818" cy="764.0000" r="6"/>
<circle cx="1198.1818" cy="776.0000" r="6"/>
<circle cx="1198.1818" cy="788.0000" r="6"/>
<circle cx="1198.1818" cy="800.0000" r="6"/>
<circle cx="1185.0909" cy="812.0000" r="6"/>
<circle cx="1198.1818" cy="812.0000" r="6"/>
<circle cx="1211.2727" cy="812.0000" r="6"/>
<circle cx="33.0909" cy="920.0000" r="6"/>
<circle cx="46.1818" cy="920.0000" r="6"/>
<circle cx="33.0909" cy="932.0000" r="6"/>
<circle cx="46.1818" cy="932.0000" r="6"/>
<circle cx="105.0909" cy="920.0000" r="6"/>
<circle cx="118.1818" cy="920.0000" r="6"/>
<circle cx="105.0909" cy="932.0000" r="6"/>
<circle cx="118.1818" cy="932.0000" r="6"/>
<circle cx="177.0909" cy="920.0000" r="6"/>
<circle cx="190.1818" cy="920.0000" r="6"/>
<circle cx="177.0909" cy="932.0000" r="6"/>
<circle cx="190.1818" cy="932.0000" r="6"/>
<circle cx="249.0909" cy="920.0000" r="6"/>
<circle cx="262.1818" cy="920.0000" r="6"/>
<circle cx="249.0909" cy="932.0000" r="6"/>
<circle cx="262.1818" cy="932.0000" r="6"/>
<circle cx="314.5455" cy="860.0000" r="6"/>
<circle cx="327.6364" cy="860.0000" r="6"/>
<circle cx="340.7273" cy="860.0000" r="6"/>
<circle cx="353.8182" cy="860.0000" r="6"/>
<circle cx="308.0000" cy="872.0000" r="6"/>
<circle cx="360.3636" cy="872.0000" r="6"/>
<circle cx="360.3636" cy="884.0000" r="6"/>
<circle cx="347.2727" cy="896.0000" r="6"/>
<circle cx="334.1818" cy="908.0000" r="6"/>
<circle cx="321.0909" cy="920.0000" r="6"/>
<circle cx="308.0000" cy="932.0000" r="6"/>
<circle cx="321.0909" cy="932.0000" r="6"/>
<circle cx="334.1818" cy="932.0000" r="6"/>
<circle cx="347.2727" cy="932.0000" r="6"/>
<circle cx="360.3636" cy="932.0000" r="6"/>
<circle cx="393.0909" cy="920.0000" r="6"/>
<circle cx="406.1818" cy="920.0000" r="6"/>
<circle cx="393.0909" cy="932.0000" r="6"/>
<circle cx="406.1818" cy="932.0000" r="6"/>
<circle cx="465.0909" cy="920.0000" r="6"/>
<circle cx="478.1818" cy="920.0000" r="6"/>
<circle cx="465.0909" cy="932.0000" r="6"/>
<circle cx="478.1818" cy="932.0000" r="6"/>
<circle cx="537.0909" cy="920.0000" r="6"/>
<circle cx="550.1818" cy="920.0000" r="6"/>
<circle cx="537.0909" cy="932.0000" r="6"/>
<circle cx="550.1818" cy="932.0000" r="6"/>
<circle cx="609.0909" cy="920.0000" r="6"/>
<circle cx="622.1818" cy="920.0000" r="6"/>
<circle cx="609.0909" cy="932.0000" r="6"/>
<circle cx="622.1818" cy="932.0000" r="6"/>
<g style="stroke:rgb(255,0,0);stroke-width:1">
<line y1="20" x2="2000" y2="20"/>
<line x1="20" x2="20" y2="2000"/>
<line x1="1230" x2="1230" y2="2000"/>
</g>
</g>
</svg>