<?xml version="1.0"?>
<svg xmlns="http://www.w3.org/2000/svg" version="1.0">
<g transform="scale(2)">
<circle cx="2.0000" cy="4.4000" r="0.6" />
<circle cx="3.3091" cy="4.4000" r="0.6" />
<circle cx="4.6182" cy="4.4000" r="0.6" />
<circle cx="5.9273" cy="4.4000" r="0.6" />
<circle cx="2.0000" cy="5.6000" r="0.6" />
<circle cx="6.5818" cy="5.6000" r="0.6" />
<circle cx="2.0000" cy="6.8000" r="0.6" />
<circle cx="6.5818" cy="6.8000" r="0.6" />
<circle cx="2.0000" cy="8.0000" r="0.6" />
<circle cx="6.5818" cy="8.0000" r="0.6" />
<circle cx="2.0000" cy="9.2000" r="0.6" />
<circle cx="6.5818" cy="9.2000" r="0.6" />
<circle cx="9.8545" cy="4.4000" r="0.6" />
<circle cx="11.1636" cy="4.4000" r="0.6" />
<circle cx="12.4727" cy="4.4000" r="0.6" />
<circle cx="13.7818" cy="4.4000" r="0.6" />
<circle cx="9.2000" cy="5.6000" r="0.6" />
<circle cx="14.4364" cy="5.6000" r="0.6" />
<circle cx="9.2000" cy="6.8000" r="0.6" />
<circle cx="14.4364" cy="6.8000" r="0.6" />
<circle cx="9.2000" cy="8.0000" r="0.6" />
<circle cx="14.4364" cy="8.0000" r="0.6" />
<circle cx="9.8545" cy="9.2000" r="0.6" />
<circle cx="11.1636" cy="9.2000" r="0.6" />
<circle cx="12.4727" cy="9.2000" r="0.6" />
<circle cx="13.7818" cy="9.2000" r="0.6" />
<circle cx="16.4000" cy="4.4000" r="0.6" />
<circle cx="18.3636" cy="4.4000" r="0.6" />
<circle cx="19.6727" cy="4.4000" r="0.6" />
<circle cx="20.9818" cy="4.4000" r="0.6" />
<circle cx="16.4000" cy="5.6000" r="0.6" />
<circle cx="17.7091" cy="5.6000" r="0.6" />
<circle cx="16.4000" cy="6.8000" r="0.6" />
<circle cx="16.4000" cy="8.0000" r="0.6" />
<circle cx="16.4000" cy="9.2000" r="0.6" />
<circle cx="24.2545" cy="4.4000" r="0.6" />
<circle cx="25.5636" cy="4.4000" r="0.6" />
<circle cx="26.8727" cy="4.4000" r="0.6" />
<circle cx="28.1818" cy="4.4000" r="0.6" />
<circle cx="23.6000" cy="5.6000" r="0.6" />
<circle cx="26.2182" cy="5.6000" r="0.6" />
<circle cx="28.8364" cy="5.6000" r="0.6" />
<circle cx="23.6000" cy="6.8000" r="0.6" />
<circle cx="26.2182" cy="6.8000" r="0.6" />
<circle cx="28.8364" cy="6.8000" r="0.6" />
<circle cx="23.6000" cy="8.0000" r="0.6" />
<circle cx="26.2182" cy="8.0000" r="0.6" />
<circle cx="28.8364" cy="8.0000" r="0.6" />
<circle cx="23.6000" cy="9.2000" r="0.6" />
<circle cx="26.2182" cy="9.2000" r="0.6" />
<circle cx="28.8364" cy="9.2000" r="0.6" />
<circle cx="32.1091" cy="4.4000" r="0.6" />
<circle cx="33.4182" cy="4.4000" r="0.6" />
<circle cx="34.7273" cy="4.4000" r="0.6" />
<circle cx="35.3818" cy="5.6000" r="0.6" />
<circle cx="31.4545" cy="6.8000" r="0.6" />
<circle cx="32.7636" cy="6.8000" r="0.6" />
<circle cx="34.0727" cy="6.8000" r="0.6" />
<circle cx="35.3818" cy="6.8000" r="0.6" />
<circle cx="30.8000" cy="8.0000" r="0.6" />
<circle cx="35.3818" cy="8.0000" r="0.6" />
<circle cx="31.4545" cy="9.2000" r="0.6" />
<circle cx="32.7636" cy="9.2000" r="0.6" />
<circle cx="34.0727" cy="9.2000" r="0.6" />
<circle cx="36.0364" cy="9.2000" r="0.6" />
<circle cx="38.6545" cy="2.0000" r="0.6" />
<circle cx="39.9636" cy="2.0000" r="0.6" />
<circle cx="39.9636" cy="3.2000" r="0.6" />
<circle cx="39.9636" cy="4.4000" r="0.6" />
<circle cx="39.9636" cy="5.6000" r="0.6" />
<circle cx="39.9636" cy="6.8000" r="0.6" />
<circle cx="39.9636" cy="8.0000" r="0.6" />
<circle cx="38.6545" cy="9.2000" r="0.6" />
<circle cx="39.9636" cy="9.2000" r="0.6" />
<circle cx="41.2727" cy="9.2000" r="0.6" />
<circle cx="52.4000" cy="2.0000" r="0.6" />
<circle cx="53.7091" cy="2.0000" r="0.6" />
<circle cx="62.8727" cy="2.0000" r="0.6" />
<circle cx="64.1818" cy="2.0000" r="0.6" />
<circle cx="52.4000" cy="3.2000" r="0.6" />
<circle cx="53.7091" cy="3.2000" r="0.6" />
<circle cx="62.8727" cy="3.2000" r="0.6" />
<circle cx="64.1818" cy="3.2000" r="0.6" />
<circle cx="52.4000" cy="4.4000" r="0.6" />
<circle cx="53.7091" cy="4.4000" r="0.6" />
<circle cx="57.6364" cy="4.4000" r="0.6" />
<circle cx="58.9455" cy="4.4000" r="0.6" />
<circle cx="62.8727" cy="4.4000" r="0.6" />
<circle cx="64.1818" cy="4.4000" r="0.6" />
<circle cx="52.4000" cy="5.6000" r="0.6" />
<circle cx="53.7091" cy="5.6000" r="0.6" />
<circle cx="57.6364" cy="5.6000" r="0.6" />
<circle cx="58.9455" cy="5.6000" r="0.6" />
<circle cx="62.8727" cy="5.6000" r="0.6" />
<circle cx="64.1818" cy="5.6000" r="0.6" />
<circle cx="52.4000" cy="6.8000" r="0.6" />
<circle cx="53.7091" cy="6.8000" r="0.6" />
<circle cx="56.3273" cy="6.8000" r="0.6" />
<circle cx="57.6364" cy="6.8000" r="0.6" />
<circle cx="58.9455" cy="6.8000" r="0.6" />
<circle cx="60.2545" cy="6.8000" r="0.6" />
<circle cx="62.8727" cy="6.8000" r="0.6" />
<circle cx="64.1818" cy="6.8000" r="0.6" />
<circle cx="52.4000" cy="8.0000" r="0.6" />
<circle cx="53.7091" cy="8.0000" r="0.6" />
<circle cx="55.0182" cy="8.0000" r="0.6" />
<circle cx="56.3273" cy="8.0000" r="0.6" />
<circle cx="60.2545" cy="8.0000" r="0.6" />
<circle cx="61.5636" cy="8.0000" r="0.6" />
<circle cx="62.8727" cy="8.0000" r="0.6" />
<circle cx="64.1818" cy="8.0000" r="0.6" />
<circle cx="53.7091" cy="9.2000" r="0.6" />
<circle cx="55.0182" cy="9.2000" r="0.6" />
<circle cx="61.5636" cy="9.2000" r="0.6" />
<circle cx="62.8727" cy="9.2000" r="0.6" />
<circle cx="69.4182" cy="2.0000" r="0.6" />
<circle cx="70.7273" cy="2.0000" r="0.6" />
<circle cx="72.0364" cy="2.0000" r="0.6" />
<circle cx="73.3455" cy="2.0000" r="0.6" />
<circle cx="74.6545" cy="2.0000" r="0.6" />
<circle cx="75.9636" cy="2.0000" r="0.6" />
<circle cx="72.0364" cy="3.2000" r="0.6" />
<circle cx="73.3455" cy="3.2000" r="0.6" />
<circle cx="72.0364" cy="4.4000" r="0.6" />
<circle cx="73.3455" cy="4.4000" r="0.6" />
<circle cx="72.0364" cy="5.6000" r="0.6" />
<circle cx="73.3455" cy="5.6000" r="0.6" />
<circle cx="72.0364" cy="6.8000" r="0.6" />
<circle cx="73.3455" cy="6.8000" r="0.6" />
<circle cx="72.0364" cy="8.0000" r="0.6" />
<circle cx="73.3455" cy="8.0000" r="0.6" />
<circle cx="69.4182" cy="9.2000" r="0.6" />
<circle cx="70.7273" cy="9.2000" r="0.6" />
<circle cx="72.0364" cy="9.2000" r="0.6" />
<circle cx="73.3455" cy="9.2000" r="0.6" />
<circle cx="74.6545" cy="9.2000" r="0.6" />
<circle cx="75.9636" cy="9.2000" r="0.6" />
<circle cx="81.2000" cy="2.0000" r="0.6" />
<circle cx="82.5091" cy="2.0000" r="0.6" />
<circle cx="83.8182" cy="2.0000" r="0.6" />
<circle cx="85.1273" cy="2.0000" r="0.6" />
<circle cx="86.4364" cy="2.0000" r="0.6" />
<circle cx="87.7455" cy="2.0000" r="0.6" />
<circle cx="89.0545" cy="2.0000" r="0.6" />
<circle cx="90.3636" cy="2.0000" r="0.6" />
<circle cx="83.8182" cy="3.2000" r="0.6" />
<circle cx="85.1273" cy="3.2000" r="0.6" />
<circle cx="90.3636" cy="3.2000" r="0.6" />
<circle cx="91.6727" cy="3.2000" r="0.6" />
<circle cx="83.8182" cy="4.4000" r="0.6" />
<circle cx="85.1273" cy="4.4000" r="0.6" />
<circle cx="91.6727" cy="4.4000" r="0.6" />
<circle cx="92.9818" cy="4.4000" r="0.6" />
<circle cx="83.8182" cy="5.6000" r="0.6" />
<circle cx="85.1273" cy="5.6000" r="0.6" />
<circle cx="91.6727" cy="5.6000" r="0.6" />
<circle cx="92.9818" cy="5.6000" r="0.6" />
<circle cx="83.8182" cy="6.8000" r="0.6" />
<circle cx="85.1273" cy="6.8000" r="0.6" />
<circle cx="91.6727" cy="6.8000" r="0.6" />
<circle cx="92.9818" cy="6.8000" r="0.6" />
<circle cx="83.8182" cy="8.0000" r="0.6" />
<circle cx="85.1273" cy="8.0000" r="0.6" />
<circle cx="90.3636" cy="8.0000" r="0.6" />
<circle cx="91.6727" cy="8.0000" r="0.6" />
<circle cx="81.2000" cy="9.2000" r="0.6" />
<circle cx="82.5091" cy="9.2000" r="0.6" />
<circle cx="83.8182" cy="9.2000" r="0.6" />
<circle cx="85.1273" cy="9.2000" r="0.6" />
<circle cx="86.4364" cy="9.2000" r="0.6" />
<circle cx="87.7455" cy="9.2000" r="0.6" />
<circle cx="89.0545" cy="9.2000" r="0.6" />
<circle cx="90.3636" cy="9.2000" r="0.6" />
<circle cx="95.6000" cy="2.0000" r="0.6" />
<circle cx="96.9091" cy="2.0000" r="0.6" />
<circle cx="98.2182" cy="2.0000" r="0.6" />
<circle cx="99.5273" cy="2.0000" r="0.6" />
<circle cx="100.8364" cy="2.0000" r="0.6" />
<circle cx="102.1455" cy="2.0000" r="0.6" />
<circle cx="103.4545" cy="2.0000" r="0.6" />
<circle cx="104.7636" cy="2.0000" r="0.6" />
<circle cx="106.0727" cy="2.0000" r="0.6" />
<circle cx="107.3818" cy="2.0000" r="0.6" />
<circle cx="95.6000" cy="3.2000" r="0.6" />
<circle cx="96.9091" cy="3.2000" r="0.6" />
<circle cx="95.6000" cy="4.4000" r="0.6" />
<circle cx="96.9091" cy="4.4000" r="0.6" />
<circle cx="95.6000" cy="5.6000" r="0.6" />
<circle cx="96.9091" cy="5.6000" r="0.6" />
<circle cx="98.2182" cy="5.6000" r="0.6" />
<circle cx="99.5273" cy="5.6000" r="0.6" />
<circle cx="100.8364" cy="5.6000" r="0.6" />
<circle cx="102.1455" cy="5.6000" r="0.6" />
<circle cx="103.4545" cy="5.6000" r="0.6" />
<circle cx="104.7636" cy="5.6000" r="0.6" />
<circle cx="95.6000" cy="6.8000" r="0.6" />
<circle cx="96.9091" cy="6.8000" r="0.6" />
<circle cx="95.6000" cy="8.0000" r="0.6" />
<circle cx="96.9091" cy="8.0000" r="0.6" />
<circle cx="95.6000" cy="9.2000" r="0.6" />
<circle cx="96.9091" cy="9.2000" r="0.6" />
<circle cx="98.2182" cy="9.2000" r="0.6" />
<circle cx="99.5273" cy="9.2000" r="0.6" />
<circle cx="100.8364" cy="9.2000" r="0.6" />
<circle cx="102.1455" cy="9.2000" r="0.6" />
<circle cx="103.4545" cy="9.2000" r="0.6" />
<circle cx="104.7636" cy="9.2000" r="0.6" />
<circle cx="106.0727" cy="9.2000" r="0.6" />
<circle cx="107.3818" cy="9.2000" r="0.6" />
<circle cx="2.0000" cy="14.0000" r="0.6" />
<circle cx="7.2364" cy="14.0000" r="0.6" />
<circle cx="2.0000" cy="15.2000" r="0.6" />
<circle cx="3.3091" cy="15.2000" r="0.6" />
<circle cx="7.2364" cy="15.2000" r="0.6" />
<circle cx="2.0000" cy="16.4000" r="0.6" />
<circle cx="3.9636" cy="16.4000" r="0.6" />
<circle cx="7.2364" cy="16.4000" r="0.6" />
<circle cx="2.0000" cy="17.6000" r="0.6" />
<circle cx="4.6182" cy="17.6000" r="0.6" />
<circle cx="7.2364" cy="17.6000" r="0.6" />
<circle cx="2.0000" cy="18.8000" r="0.6" />
<circle cx="5.2727" cy="18.8000" r="0.6" />
<circle cx="7.2364" cy="18.8000" r="0.6" />
<circle cx="2.0000" cy="20.0000" r="0.6" />
<circle cx="5.9273" cy="20.0000" r="0.6" />
<circle cx="7.2364" cy="20.0000" r="0.6" />
<circle cx="2.0000" cy="21.2000" r="0.6" />
<circle cx="7.2364" cy="21.2000" r="0.6" />
<circle cx="9.8545" cy="16.4000" r="0.6" />
<circle cx="11.1636" cy="16.4000" r="0.6" />
<circle cx="12.4727" cy="16.4000" r="0.6" />
<circle cx="13.7818" cy="16.4000" r="0.6" />
<circle cx="9.2000" cy="17.6000" r="0.6" />
<circle cx="14.4364" cy="17.6000" r="0.6" />
<circle cx="9.2000" cy="18.8000" r="0.6" />
<circle cx="14.4364" cy="18.8000" r="0.6" />
<circle cx="9.2000" cy="20.0000" r="0.6" />
<circle cx="14.4364" cy="20.0000" r="0.6" />
<circle cx="9.8545" cy="21.2000" r="0.6" />
<circle cx="11.1636" cy="21.2000" r="0.6" />
<circle cx="12.4727" cy="21.2000" r="0.6" />
<circle cx="13.7818" cy="21.2000" r="0.6" />
<circle cx="16.4000" cy="16.4000" r="0.6" />
<circle cx="18.3636" cy="16.4000" r="0.6" />
<circle cx="19.6727" cy="16.4000" r="0.6" />
<circle cx="20.9818" cy="16.4000" r="0.6" />
<circle cx="16.4000" cy="17.6000" r="0.6" />
<circle cx="17.7091" cy="17.6000" r="0.6" />
<circle cx="16.4000" cy="18.8000" r="0.6" />
<circle cx="16.4000" cy="20.0000" r="0.6" />
<circle cx="16.4000" cy="21.2000" r="0.6" />
<circle cx="24.2545" cy="16.4000" r="0.6" />
<circle cx="25.5636" cy="16.4000" r="0.6" />
<circle cx="26.8727" cy="16.4000" r="0.6" />
<circle cx="28.1818" cy="16.4000" r="0.6" />
<circle cx="23.6000" cy="17.6000" r="0.6" />
<circle cx="26.2182" cy="17.6000" r="0.6" />
<circle cx="28.8364" cy="17.6000" r="0.6" />
<circle cx="23.6000" cy="18.8000" r="0.6" />
<circle cx="26.2182" cy="18.8000" r="0.6" />
<circle cx="28.8364" cy="18.8000" r="0.6" />
<circle cx="23.6000" cy="20.0000" r="0.6" />
<circle cx="26.2182" cy="20.0000" r="0.6" />
<circle cx="28.8364" cy="20.0000" r="0.6" />
<circle cx="23.6000" cy="21.2000" r="0.6" />
<circle cx="26.2182" cy="21.2000" r="0.6" />
<circle cx="28.8364" cy="21.2000" r="0.6" />
<circle cx="32.1091" cy="16.4000" r="0.6" />
<circle cx="33.4182" cy="16.4000" r="0.6" />
<circle cx="34.7273" cy="16.4000" r="0.6" />
<circle cx="35.3818" cy="17.6000" r="0.6" />
<circle cx="31.4545" cy="18.8000" r="0.6" />
<circle cx="32.7636" cy="18.8000" r="0.6" />
<circle cx="34.0727" cy="18.8000" r="0.6" />
<circle cx="35.3818" cy="18.8000" r="0.6" />
<circle cx="30.8000" cy="20.0000" r="0.6" />
<circle cx="35.3818" cy="20.0000" r="0.6" />
<circle cx="31.4545" cy="21.2000" r="0.6" />
<circle cx="32.7636" cy="21.2000" r="0.6" />
<circle cx="34.0727" cy="21.2000" r="0.6" />
<circle cx="36.0364" cy="21.2000" r="0.6" />
<circle cx="38.6545" cy="14.0000" r="0.6" />
<circle cx="39.9636" cy="14.0000" r="0.6" />
<circle cx="39.9636" cy="15.2000" r="0.6" />
<circle cx="39.9636" cy="16.4000" r="0.6" />
<circle cx="39.9636" cy="17.6000" r="0.6" />
<circle cx="39.9636" cy="18.8000" r="0.6" />
<circle cx="39.9636" cy="20.0000" r="0.6" />
<circle cx="38.6545" cy="21.2000" r="0.6" />
<circle cx="39.9636" cy="21.2000" r="0.6" />
<circle cx="41.2727" cy="21.2000" r="0.6" />
<circle cx="56.3273" cy="14.0000" r="0.6" />
<circle cx="55.6727" cy="15.2000" r="0.6" />
<circle cx="55.0182" cy="16.4000" r="0.6" />
<circle cx="55.0182" cy="17.6000" r="0.6" />
<circle cx="55.0182" cy="18.8000" r="0.6" />
<circle cx="55.6727" cy="20.0000" r="0.6" />
<circle cx="56.3273" cy="21.2000" r="0.6" />
<circle cx="59.6000" cy="14.0000" r="0.6" />
<circle cx="60.9091" cy="14.0000" r="0.6" />
<circle cx="62.2182" cy="14.0000" r="0.6" />
<circle cx="63.5273" cy="14.0000" r="0.6" />
<circle cx="59.6000" cy="15.2000" r="0.6" />
<circle cx="64.8364" cy="15.2000" r="0.6" />
<circle cx="59.6000" cy="16.4000" r="0.6" />
<circle cx="64.8364" cy="16.4000" r="0.6" />
<circle cx="59.6000" cy="17.6000" r="0.6" />
<circle cx="60.9091" cy="17.6000" r="0.6" />
<circle cx="62.2182" cy="17.6000" r="0.6" />
<circle cx="63.5273" cy="17.6000" r="0.6" />
<circle cx="59.6000" cy="18.8000" r="0.6" />
<circle cx="59.6000" cy="20.0000" r="0.6" />
<circle cx="59.6000" cy="21.2000" r="0.6" />
<circle cx="68.1091" cy="14.0000" r="0.6" />
<circle cx="69.4182" cy="14.0000" r="0.6" />
<circle cx="70.7273" cy="14.0000" r="0.6" />
<circle cx="69.4182" cy="15.2000" r="0.6" />
<circle cx="69.4182" cy="16.4000" r="0.6" />
<circle cx="69.4182" cy="17.6000" r="0.6" />
<circle cx="69.4182" cy="18.8000" r="0.6" />
<circle cx="69.4182" cy="20.0000" r="0.6" />
<circle cx="68.1091" cy="21.2000" r="0.6" />
<circle cx="69.4182" cy="21.2000" r="0.6" />
<circle cx="70.7273" cy="21.2000" r="0.6" />
<circle cx="74.6545" cy="14.0000" r="0.6" />
<circle cx="75.9636" cy="14.0000" r="0.6" />
<circle cx="77.2727" cy="14.0000" r="0.6" />
<circle cx="78.5818" cy="14.0000" r="0.6" />
<circle cx="74.0000" cy="15.2000" r="0.6" />
<circle cx="79.2364" cy="15.2000" r="0.6" />
<circle cx="74.0000" cy="16.4000" r="0.6" />
<circle cx="74.0000" cy="17.6000" r="0.6" />
<circle cx="74.0000" cy="18.8000" r="0.6" />
<circle cx="74.0000" cy="20.0000" r="0.6" />
<circle cx="79.2364" cy="20.0000" r="0.6" />
<circle cx="74.6545" cy="21.2000" r="0.6" />
<circle cx="75.9636" cy="21.2000" r="0.6" />
<circle cx="77.2727" cy="21.2000" r="0.6" />
<circle cx="78.5818" cy="21.2000" r="0.6" />
<circle cx="83.1636" cy="14.0000" r="0.6" />
<circle cx="84.4727" cy="14.0000" r="0.6" />
<circle cx="82.5091" cy="15.2000" r="0.6" />
<circle cx="85.1273" cy="15.2000" r="0.6" />
<circle cx="81.8545" cy="16.4000" r="0.6" />
<circle cx="85.7818" cy="16.4000" r="0.6" />
<circle cx="81.2000" cy="17.6000" r="0.6" />
<circle cx="86.4364" cy="17.6000" r="0.6" />
<circle cx="81.2000" cy="18.8000" r="0.6" />
<circle cx="82.5091" cy="18.8000" r="0.6" />
<circle cx="83.8182" cy="18.8000" r="0.6" />
<circle cx="85.1273" cy="18.8000" r="0.6" />
<circle cx="86.4364" cy="18.8000" r="0.6" />
<circle cx="81.2000" cy="20.0000" r="0.6" />
<circle cx="86.4364" cy="20.0000" r="0.6" />
<circle cx="81.2000" cy="21.2000" r="0.6" />
<circle cx="86.4364" cy="21.2000" r="0.6" />
<circle cx="89.7091" cy="14.0000" r="0.6" />
<circle cx="90.3636" cy="15.2000" r="0.6" />
<circle cx="91.0182" cy="16.4000" r="0.6" />
<circle cx="91.0182" cy="17.6000" r="0.6" />
<circle cx="91.0182" cy="18.8000" r="0.6" />
<circle cx="90.3636" cy="20.0000" r="0.6" />
<circle cx="89.7091" cy="21.2000" r="0.6" />
<circle cx="2.5455" cy="26.0000" r="0.6" />
<circle cx="3.6364" cy="26.0000" r="0.6" />
<circle cx="4.7273" cy="26.0000" r="0.6" />
<circle cx="5.8182" cy="26.0000" r="0.6" />
<circle cx="2.0000" cy="27.2000" r="0.6" />
<circle cx="6.3636" cy="27.2000" r="0.6" />
<circle cx="2.0000" cy="28.4000" r="0.6" />
<circle cx="2.0000" cy="29.6000" r="0.6" />
<circle cx="2.0000" cy="30.8000" r="0.6" />
<circle cx="2.0000" cy="32.0000" r="0.6" />
<circle cx="6.3636" cy="32.0000" r="0.6" />
<circle cx="2.5455" cy="33.2000" r="0.6" />
<circle cx="3.6364" cy="33.2000" r="0.6" />
<circle cx="4.7273" cy="33.2000" r="0.6" />
<circle cx="5.8182" cy="33.2000" r="0.6" />
<circle cx="8.5455" cy="28.4000" r="0.6" />
<circle cx="9.6364" cy="28.4000" r="0.6" />
<circle cx="10.7273" cy="28.4000" r="0.6" />
<circle cx="11.8182" cy="28.4000" r="0.6" />
<circle cx="8.0000" cy="29.6000" r="0.6" />
<circle cx="12.3636" cy="29.6000" r="0.6" />
<circle cx="8.0000" cy="30.8000" r="0.6" />
<circle cx="12.3636" cy="30.8000" r="0.6" />
<circle cx="8.0000" cy="32.0000" r="0.6" />
<circle cx="12.3636" cy="32.0000" r="0.6" />
<circle cx="8.5455" cy="33.2000" r="0.6" />
<circle cx="9.6364" cy="33.2000" r="0.6" />
<circle cx="10.7273" cy="33.2000" r="0.6" />
<circle cx="11.8182" cy="33.2000" r="0.6" />
<circle cx="14.5455" cy="28.4000" r="0.6" />
<circle cx="15.6364" cy="28.4000" r="0.6" />
<circle cx="16.7273" cy="28.4000" r="0.6" />
<circle cx="17.8182" cy="28.4000" r="0.6" />
<circle cx="14.0000" cy="29.6000" r="0.6" />
<circle cx="16.1818" cy="29.6000" r="0.6" />
<circle cx="18.3636" cy="29.6000" r="0.6" />
<circle cx="14.0000" cy="30.8000" r="0.6" />
<circle cx="16.1818" cy="30.8000" r="0.6" />
<circle cx="18.3636" cy="30.8000" r="0.6" />
<circle cx="14.0000" cy="32.0000" r="0.6" />
<circle cx="16.1818" cy="32.0000" r="0.6" />
<circle cx="18.3636" cy="32.0000" r="0.6" />
<circle cx="14.0000" cy="33.2000" r="0.6" />
<circle cx="16.1818" cy="33.2000" r="0.6" />
<circle cx="18.3636" cy="33.2000" r="0.6" />
<circle cx="20.0000" cy="28.4000" r="0.6" />
<circle cx="21.0909" cy="28.4000" r="0.6" />
<circle cx="22.1818" cy="28.4000" r="0.6" />
<circle cx="23.2727" cy="28.4000" r="0.6" />
<circle cx="20.0000" cy="29.6000" r="0.6" />
<circle cx="23.8182" cy="29.6000" r="0.6" />
<circle cx="20.0000" cy="30.8000" r="0.6" />
<circle cx="23.8182" cy="30.8000" r="0.6" />
<circle cx="20.0000" cy="32.0000" r="0.6" />
<circle cx="23.8182" cy="32.0000" r="0.6" />
<circle cx="20.0000" cy="33.2000" r="0.6" />
<circle cx="21.0909" cy="33.2000" r="0.6" />
<circle cx="22.1818" cy="33.2000" r="0.6" />
<circle cx="23.2727" cy="33.2000" r="0.6" />
<circle cx="20.0000" cy="34.4000" r="0.6" />
<circle cx="20.0000" cy="35.6000" r="0.6" />
<circle cx="26.0000" cy="28.4000" r="0.6" />
<circle cx="27.6364" cy="28.4000" r="0.6" />
<circle cx="28.7273" cy="28.4000" r="0.6" />
<circle cx="29.8182" cy="28.4000" r="0.6" />
<circle cx="26.0000" cy="29.6000" r="0.6" />
<circle cx="27.0909" cy="29.6000" r="0.6" />
<circle cx="26.0000" cy="30.8000" r="0.6" />
<circle cx="26.0000" cy="32.0000" r="0.6" />
<circle cx="26.0000" cy="33.2000" r="0.6" />
<circle cx="32.5455" cy="28.4000" r="0.6" />
<circle cx="33.6364" cy="28.4000" r="0.6" />
<circle cx="34.7273" cy="28.4000" r="0.6" />
<circle cx="35.8182" cy="28.4000" r="0.6" />
<circle cx="32.0000" cy="29.6000" r="0.6" />
<circle cx="36.3636" cy="29.6000" r="0.6" />
<circle cx="32.0000" cy="30.8000" r="0.6" />
<circle cx="33.0909" cy="30.8000" r="0.6" />
<circle cx="34.1818" cy="30.8000" r="0.6" />
<circle cx="35.2727" cy="30.8000" r="0.6" />
<circle cx="36.3636" cy="30.8000" r="0.6" />
<circle cx="32.0000" cy="32.0000" r="0.6" />
<circle cx="32.5455" cy="33.2000" r="0.6" />
<circle cx="33.6364" cy="33.2000" r="0.6" />
<circle cx="34.7273" cy="33.2000" r="0.6" />
<circle cx="35.8182" cy="33.2000" r="0.6" />
<circle cx="38.5455" cy="28.4000" r="0.6" />
<circle cx="39.6364" cy="28.4000" r="0.6" />
<circle cx="40.7273" cy="28.4000" r="0.6" />
<circle cx="41.8182" cy="28.4000" r="0.6" />
<circle cx="38.0000" cy="29.6000" r="0.6" />
<circle cx="38.5455" cy="30.8000" r="0.6" />
<circle cx="39.6364" cy="30.8000" r="0.6" />
<circle cx="40.7273" cy="30.8000" r="0.6" />
<circle cx="41.8182" cy="30.8000" r="0.6" />
<circle cx="42.3636" cy="32.0000" r="0.6" />
<circle cx="38.5455" cy="33.2000" r="0.6" />
<circle cx="39.6364" cy="33.2000" r="0.6" />
<circle cx="40.7273" cy="33.2000" r="0.6" />
<circle cx="41.8182" cy="33.2000" r="0.6" />
<circle cx="44.5455" cy="28.4000" r="0.6" />
<circle cx="45.6364" cy="28.4000" r="0.6" />
<circle cx="46.7273" cy="28.4000" r="0.6" />
<circle cx="47.8182" cy="28.4000" r="0.6" />
<circle cx="44.0000" cy="29.6000" r="0.6" />
<circle cx="44.5455" cy="30.8000" r="0.6" />
<circle cx="45.6364" cy="30.8000" r="0.6" />
<circle cx="46.7273" cy="30.8000" r="0.6" />
<circle cx="47.8182" cy="30.8000" r="0.6" />
<circle cx="48.3636" cy="32.0000" r="0.6" />
<circle cx="44.5455" cy="33.2000" r="0.6" />
<circle cx="45.6364" cy="33.2000" r="0.6" />
<circle cx="46.7273" cy="33.2000" r="0.6" />
<circle cx="47.8182" cy="33.2000" r="0.6" />
<circle cx="50.5455" cy="28.4000" r="0.6" />
<circle cx="51.6364" cy="28.4000" r="0.6" />
<circle cx="52.7273" cy="28.4000" r="0.6" />
<circle cx="53.8182" cy="28.4000" r="0.6" />
<circle cx="50.0000" cy="29.6000" r="0.6" />
<circle cx="54.3636" cy="29.6000" r="0.6" />
<circle cx="50.0000" cy="30.8000" r="0.6" />
<circle cx="51.0909" cy="30.8000" r="0.6" />
<circle cx="52.1818" cy="30.8000" r="0.6" />
<circle cx="53.2727" cy="30.8000" r="0.6" />
<circle cx="54.3636" cy="30.8000" r="0.6" />
<circle cx="50.0000" cy="32.0000" r="0.6" />
<circle cx="50.5455" cy="33.2000" r="0.6" />
<circle cx="51.6364" cy="33.2000" r="0.6" />
<circle cx="52.7273" cy="33.2000" r="0.6" />
<circle cx="53.8182" cy="33.2000" r="0.6" />
<circle cx="59.8182" cy="26.0000" r="0.6" />
<circle cx="59.8182" cy="27.2000" r="0.6" />
<circle cx="56.5455" cy="28.4000" r="0.6" />
<circle cx="57.6364" cy="28.4000" r="0.6" />
<circle cx="58.7273" cy="28.4000" r="0.6" />
<circle cx="59.8182" cy="28.4000" r="0.6" />
<circle cx="56.0000" cy="29.6000" r="0.6" />
<circle cx="59.8182" cy="29.6000" r="0.6" />
<circle cx="56.0000" cy="30.8000" r="0.6" />
<circle cx="59.8182" cy="30.8000" r="0.6" />
<circle cx="56.0000" cy="32.0000" r="0.6" />
<circle cx="59.8182" cy="32.0000" r="0.6" />
<circle cx="56.5455" cy="33.2000" r="0.6" />
<circle cx="57.6364" cy="33.2000" r="0.6" />
<circle cx="58.7273" cy="33.2000" r="0.6" />
<circle cx="59.8182" cy="33.2000" r="0.6" />
<circle cx="71.2727" cy="26.0000" r="0.6" />
<circle cx="70.7273" cy="27.2000" r="0.6" />
<circle cx="70.1818" cy="28.4000" r="0.6" />
<circle cx="70.1818" cy="29.6000" r="0.6" />
<circle cx="70.1818" cy="30.8000" r="0.6" />
<circle cx="70.7273" cy="32.0000" r="0.6" />
<circle cx="71.2727" cy="33.2000" r="0.6" />
<circle cx="74.0000" cy="26.0000" r="0.6" />
<circle cx="75.0909" cy="26.0000" r="0.6" />
<circle cx="76.1818" cy="26.0000" r="0.6" />
<circle cx="77.2727" cy="26.0000" r="0.6" />
<circle cx="78.3636" cy="26.0000" r="0.6" />
<circle cx="74.0000" cy="27.2000" r="0.6" />
<circle cx="74.0000" cy="28.4000" r="0.6" />
<circle cx="74.0000" cy="29.6000" r="0.6" />
<circle cx="75.0909" cy="29.6000" r="0.6" />
<circle cx="76.1818" cy="29.6000" r="0.6" />
<circle cx="77.2727" cy="29.6000" r="0.6" />
<circle cx="74.0000" cy="30.8000" r="0.6" />
<circle cx="74.0000" cy="32.0000" r="0.6" />
<circle cx="74.0000" cy="33.2000" r="0.6" />
<circle cx="75.0909" cy="33.2000" r="0.6" />
<circle cx="76.1818" cy="33.2000" r="0.6" />
<circle cx="77.2727" cy="33.2000" r="0.6" />
<circle cx="78.3636" cy="33.2000" r="0.6" />
<circle cx="80.0000" cy="26.0000" r="0.6" />
<circle cx="80.0000" cy="27.2000" r="0.6" />
<circle cx="80.0000" cy="28.4000" r="0.6" />
<circle cx="80.0000" cy="29.6000" r="0.6" />
<circle cx="80.0000" cy="30.8000" r="0.6" />
<circle cx="80.0000" cy="32.0000" r="0.6" />
<circle cx="80.0000" cy="33.2000" r="0.6" />
<circle cx="81.0909" cy="33.2000" r="0.6" />
<circle cx="82.1818" cy="33.2000" r="0.6" />
<circle cx="83.2727" cy="33.2000" r="0.6" />
<circle cx="84.3636" cy="33.2000" r="0.6" />
<circle cx="87.0909" cy="26.0000" r="0.6" />
<circle cx="88.1818" cy="26.0000" r="0.6" />
<circle cx="89.2727" cy="26.0000" r="0.6" />
<circle cx="88.1818" cy="27.2000" r="0.6" />
<circle cx="88.1818" cy="28.4000" r="0.6" />
<circle cx="88.1818" cy="29.6000" r="0.6" />
<circle cx="88.1818" cy="30.8000" r="0.6" />
<circle cx="88.1818" cy="32.0000" r="0.6" />
<circle cx="87.0909" cy="33.2000" r="0.6" />
<circle cx="88.1818" cy="33.2000" r="0.6" />
<circle cx="89.2727" cy="33.2000" r="0.6" />
<circle cx="92.0000" cy="26.0000" r="0.6" />
<circle cx="93.0909" cy="26.0000" r="0.6" />
<circle cx="94.1818" cy="26.0000" r="0.6" />
<circle cx="95.2727" cy="26.0000" r="0.6" />
<circle cx="96.3636" cy="26.0000" r="0.6" />
<circle cx="94.1818" cy="27.2000" r="0.6" />
<circle cx="94.1818" cy="28.4000" r="0.6" />
<circle cx="94.1818" cy="29.6000" r="0.6" />
<circle cx="94.1818" cy="30.8000" r="0.6" />
<circle cx="94.1818" cy="32.0000" r="0.6" />
<circle cx="94.1818" cy="33.2000" r="0.6" />
<circle cx="98.0000" cy="26.0000" r="0.6" />
<circle cx="99.0909" cy="26.0000" r="0.6" />
<circle cx="100.1818" cy="26.0000" r="0.6" />
<circle cx="101.2727" cy="26.0000" r="0.6" />
<circle cx="102.3636" cy="26.0000" r="0.6" />
<circle cx="98.0000" cy="27.2000" r="0.6" />
<circle cx="98.0000" cy="28.4000" r="0.6" />
<circle cx="98.0000" cy="29.6000" r="0.6" />
<circle cx="99.0909" cy="29.6000" r="0.6" />
<circle cx="100.1818" cy="29.6000" r="0.6" />
<circle cx="101.2727" cy="29.6000" r="0.6" />
<circle cx="98.0000" cy="30.8000" r="0.6" />
<circle cx="98.0000" cy="32.0000" r="0.6" />
<circle cx="98.0000" cy="33.2000" r="0.6" />
<circle cx="99.0909" cy="33.2000" r="0.6" />
<circle cx="100.1818" cy="33.2000" r="0.6" />
<circle cx="101.2727" cy="33.2000" r="0.6" />
<circle cx="102.3636" cy="33.2000" r="0.6" />
<circle cx="105.0909" cy="26.0000" r="0.6" />
<circle cx="105.6364" cy="27.2000" r="0.6" />
<circle cx="106.1818" cy="28.4000" r="0.6" />
<circle cx="106.1818" cy="29.6000" r="0.6" />
<circle cx="106.1818" cy="30.8000" r="0.6" />
<circle cx="105.6364" cy="32.0000" r="0.6" />
<circle cx="105.0909" cy="33.2000" r="0.6" />
<circle cx="2.0000" cy="38.0000" r="0.6" />
<circle cx="5.0802" cy="38.0000" r="0.6" />
<circle cx="2.0000" cy="39.2000" r="0.6" />
<circle cx="5.0802" cy="39.2000" r="0.6" />
<circle cx="2.0000" cy="40.4000" r="0.6" />
<circle cx="5.0802" cy="40.4000" r="0.6" />
<circle cx="2.0000" cy="41.6000" r="0.6" />
<circle cx="5.0802" cy="41.6000" r="0.6" />
<circle cx="2.0000" cy="42.8000" r="0.6" />
<circle cx="5.0802" cy="42.8000" r="0.6" />
<circle cx="2.0000" cy="44.0000" r="0.6" />
<circle cx="5.0802" cy="44.0000" r="0.6" />
<circle cx="2.3850" cy="45.2000" r="0.6" />
<circle cx="3.1551" cy="45.2000" r="0.6" />
<circle cx="3.9251" cy="45.2000" r="0.6" />
<circle cx="4.6952" cy="45.2000" r="0.6" />
<circle cx="6.6203" cy="38.0000" r="0.6" />
<circle cx="7.3904" cy="38.0000" r="0.6" />
<circle cx="7.3904" cy="39.2000" r="0.6" />
<circle cx="7.3904" cy="40.4000" r="0.6" />
<circle cx="7.3904" cy="41.6000" r="0.6" />
<circle cx="7.3904" cy="42.8000" r="0.6" />
<circle cx="7.3904" cy="44.0000" r="0.6" />
<circle cx="6.6203" cy="45.2000" r="0.6" />
<circle cx="7.3904" cy="45.2000" r="0.6" />
<circle cx="8.1604" cy="45.2000" r="0.6" />
<circle cx="11.2406" cy="38.0000" r="0.6" />
<circle cx="11.2406" cy="39.2000" r="0.6" />
<circle cx="10.4706" cy="40.4000" r="0.6" />
<circle cx="11.2406" cy="40.4000" r="0.6" />
<circle cx="12.0107" cy="40.4000" r="0.6" />
<circle cx="12.7807" cy="40.4000" r="0.6" />
<circle cx="11.2406" cy="41.6000" r="0.6" />
<circle cx="11.2406" cy="42.8000" r="0.6" />
<circle cx="11.2406" cy="44.0000" r="0.6" />
<circle cx="11.6257" cy="45.2000" r="0.6" />
<circle cx="12.3957" cy="45.2000" r="0.6" />
<circle cx="13.1658" cy="45.2000" r="0.6" />
<circle cx="14.7059" cy="40.4000" r="0.6" />
<circle cx="15.8610" cy="40.4000" r="0.6" />
<circle cx="16.6310" cy="40.4000" r="0.6" />
<circle cx="17.4011" cy="40.4000" r="0.6" />
<circle cx="14.7059" cy="41.6000" r="0.6" />
<circle cx="15.4759" cy="41.6000" r="0.6" />
<circle cx="14.7059" cy="42.8000" r="0.6" />
<circle cx="14.7059" cy="44.0000" r="0.6" />
<circle cx="14.7059" cy="45.2000" r="0.6" />
<circle cx="19.7112" cy="40.4000" r="0.6" />
<circle cx="20.4813" cy="40.4000" r="0.6" />
<circle cx="21.2513" cy="40.4000" r="0.6" />
<circle cx="21.6364" cy="41.6000" r="0.6" />
<circle cx="19.3262" cy="42.8000" r="0.6" />
<circle cx="20.0963" cy="42.8000" r="0.6" />
<circle cx="20.8663" cy="42.8000" r="0.6" />
<circle cx="21.6364" cy="42.8000" r="0.6" />
<circle cx="18.9412" cy="44.0000" r="0.6" />
<circle cx="21.6364" cy="44.0000" r="0.6" />
<circle cx="19.3262" cy="45.2000" r="0.6" />
<circle cx="20.0963" cy="45.2000" r="0.6" />
<circle cx="20.8663" cy="45.2000" r="0.6" />
<circle cx="22.0214" cy="45.2000" r="0.6" />
<circle cx="27.7968" cy="38.0000" r="0.6" />
<circle cx="28.5668" cy="38.0000" r="0.6" />
<circle cx="29.3369" cy="38.0000" r="0.6" />
<circle cx="30.1070" cy="38.0000" r="0.6" />
<circle cx="27.4118" cy="39.2000" r="0.6" />
<circle cx="30.4920" cy="39.2000" r="0.6" />
<circle cx="27.4118" cy="40.4000" r="0.6" />
<circle cx="27.4118" cy="41.6000" r="0.6" />
<circle cx="27.4118" cy="42.8000" r="0.6" />
<circle cx="27.4118" cy="44.0000" r="0.6" />
<circle cx="30.4920" cy="44.0000" r="0.6" />
<circle cx="27.7968" cy="45.2000" r="0.6" />
<circle cx="28.5668" cy="45.2000" r="0.6" />
<circle cx="29.3369" cy="45.2000" r="0.6" />
<circle cx="30.1070" cy="45.2000" r="0.6" />
<circle cx="32.0321" cy="40.4000" r="0.6" />
<circle cx="32.8021" cy="40.4000" r="0.6" />
<circle cx="33.5722" cy="40.4000" r="0.6" />
<circle cx="34.3422" cy="40.4000" r="0.6" />
<circle cx="31.6471" cy="41.6000" r="0.6" />
<circle cx="34.7273" cy="41.6000" r="0.6" />
<circle cx="31.6471" cy="42.8000" r="0.6" />
<circle cx="34.7273" cy="42.8000" r="0.6" />
<circle cx="31.6471" cy="44.0000" r="0.6" />
<circle cx="34.7273" cy="44.0000" r="0.6" />
<circle cx="32.0321" cy="45.2000" r="0.6" />
<circle cx="32.8021" cy="45.2000" r="0.6" />
<circle cx="33.5722" cy="45.2000" r="0.6" />
<circle cx="34.3422" cy="45.2000" r="0.6" />
<circle cx="36.2674" cy="40.4000" r="0.6" />
<circle cx="37.0374" cy="40.4000" r="0.6" />
<circle cx="37.8075" cy="40.4000" r="0.6" />
<circle cx="38.5775" cy="40.4000" r="0.6" />
<circle cx="35.8824" cy="41.6000" r="0.6" />
<circle cx="37.4225" cy="41.6000" r="0.6" />
<circle cx="38.9626" cy="41.6000" r="0.6" />
<circle cx="35.8824" cy="42.8000" r="0.6" />
<circle cx="37.4225" cy="42.8000" r="0.6" />
<circle cx="38.9626" cy="42.8000" r="0.6" />
<circle cx="35.8824" cy="44.0000" r="0.6" />
<circle cx="37.4225" cy="44.0000" r="0.6" />
<circle cx="38.9626" cy="44.0000" r="0.6" />
<circle cx="35.8824" cy="45.2000" r="0.6" />
<circle cx="37.4225" cy="45.2000" r="0.6" />
<circle cx="38.9626" cy="45.2000" r="0.6" />
<circle cx="40.1176" cy="40.4000" r="0.6" />
<circle cx="40.8877" cy="40.4000" r="0.6" />
<circle cx="41.6578" cy="40.4000" r="0.6" />
<circle cx="42.4278" cy="40.4000" r="0.6" />
<circle cx="40.1176" cy="41.6000" r="0.6" />
<circle cx="42.8128" cy="41.6000" r="0.6" />
<circle cx="40.1176" cy="42.8000" r="0.6" />
<circle cx="42.8128" cy="42.8000" r="0.6" />
<circle cx="40.1176" cy="44.0000" r="0.6" />
<circle cx="42.8128" cy="44.0000" r="0.6" />
<circle cx="40.1176" cy="45.2000" r="0.6" />
<circle cx="40.8877" cy="45.2000" r="0.6" />
<circle cx="41.6578" cy="45.2000" r="0.6" />
<circle cx="42.4278" cy="45.2000" r="0.6" />
<circle cx="40.1176" cy="46.4000" r="0.6" />
<circle cx="40.1176" cy="47.6000" r="0.6" />
<circle cx="44.3529" cy="40.4000" r="0.6" />
<circle cx="45.5080" cy="40.4000" r="0.6" />
<circle cx="46.2781" cy="40.4000" r="0.6" />
<circle cx="47.0481" cy="40.4000" r="0.6" />
<circle cx="44.3529" cy="41.6000" r="0.6" />
<circle cx="45.1230" cy="41.6000" r="0.6" />
<circle cx="44.3529" cy="42.8000" r="0.6" />
<circle cx="44.3529" cy="44.0000" r="0.6" />
<circle cx="44.3529" cy="45.2000" r="0.6" />
<circle cx="48.9733" cy="40.4000" r="0.6" />
<circle cx="49.7433" cy="40.4000" r="0.6" />
<circle cx="50.5134" cy="40.4000" r="0.6" />
<circle cx="51.2834" cy="40.4000" r="0.6" />
<circle cx="48.5882" cy="41.6000" r="0.6" />
<circle cx="51.6684" cy="41.6000" r="0.6" />
<circle cx="48.5882" cy="42.8000" r="0.6" />
<circle cx="49.3583" cy="42.8000" r="0.6" />
<circle cx="50.1283" cy="42.8000" r="0.6" />
<circle cx="50.8984" cy="42.8000" r="0.6" />
<circle cx="51.6684" cy="42.8000" r="0.6" />
<circle cx="48.5882" cy="44.0000" r="0.6" />
<circle cx="48.9733" cy="45.2000" r="0.6" />
<circle cx="49.7433" cy="45.2000" r="0.6" />
<circle cx="50.5134" cy="45.2000" r="0.6" />
<circle cx="51.2834" cy="45.2000" r="0.6" />
<circle cx="53.2086" cy="40.4000" r="0.6" />
<circle cx="53.9786" cy="40.4000" r="0.6" />
<circle cx="54.7487" cy="40.4000" r="0.6" />
<circle cx="55.5187" cy="40.4000" r="0.6" />
<circle cx="52.8235" cy="41.6000" r="0.6" />
<circle cx="53.2086" cy="42.8000" r="0.6" />
<circle cx="53.9786" cy="42.8000" r="0.6" />
<circle cx="54.7487" cy="42.8000" r="0.6" />
<circle cx="55.5187" cy="42.8000" r="0.6" />
<circle cx="55.9037" cy="44.0000" r="0.6" />
<circle cx="53.2086" cy="45.2000" r="0.6" />
<circle cx="53.9786" cy="45.2000" r="0.6" />
<circle cx="54.7487" cy="45.2000" r="0.6" />
<circle cx="55.5187" cy="45.2000" r="0.6" />
<circle cx="57.4439" cy="40.4000" r="0.6" />
<circle cx="58.2139" cy="40.4000" r="0.6" />
<circle cx="58.9840" cy="40.4000" r="0.6" />
<circle cx="59.7540" cy="40.4000" r="0.6" />
<circle cx="57.0588" cy="41.6000" r="0.6" />
<circle cx="57.4439" cy="42.8000" r="0.6" />
<circle cx="58.2139" cy="42.8000" r="0.6" />
<circle cx="58.9840" cy="42.8000" r="0.6" />
<circle cx="59.7540" cy="42.8000" r="0.6" />
<circle cx="60.1390" cy="44.0000" r="0.6" />
<circle cx="57.4439" cy="45.2000" r="0.6" />
<circle cx="58.2139" cy="45.2000" r="0.6" />
<circle cx="58.9840" cy="45.2000" r="0.6" />
<circle cx="59.7540" cy="45.2000" r="0.6" />
<circle cx="61.6791" cy="40.4000" r="0.6" />
<circle cx="62.4492" cy="40.4000" r="0.6" />
<circle cx="63.2193" cy="40.4000" r="0.6" />
<circle cx="63.9893" cy="40.4000" r="0.6" />
<circle cx="61.2941" cy="41.6000" r="0.6" />
<circle cx="64.3743" cy="41.6000" r="0.6" />
<circle cx="61.2941" cy="42.8000" r="0.6" />
<circle cx="62.0642" cy="42.8000" r="0.6" />
<circle cx="62.8342" cy="42.8000" r="0.6" />
<circle cx="63.6043" cy="42.8000" r="0.6" />
<circle cx="64.3743" cy="42.8000" r="0.6" />
<circle cx="61.2941" cy="44.0000" r="0.6" />
<circle cx="61.6791" cy="45.2000" r="0.6" />
<circle cx="62.4492" cy="45.2000" r="0.6" />
<circle cx="63.2193" cy="45.2000" r="0.6" />
<circle cx="63.9893" cy="45.2000" r="0.6" />
<circle cx="68.2246" cy="38.0000" r="0.6" />
<circle cx="68.2246" cy="39.2000" r="0.6" />
<circle cx="65.9144" cy="40.4000" r="0.6" />
<circle cx="66.6845" cy="40.4000" r="0.6" />
<circle cx="67.4545" cy="40.4000" r="0.6" />
<circle cx="68.2246" cy="40.4000" r="0.6" />
<circle cx="65.5294" cy="41.6000" r="0.6" />
<circle cx="68.2246" cy="41.6000" r="0.6" />
<circle cx="65.5294" cy="42.8000" r="0.6" />
<circle cx="68.2246" cy="42.8000" r="0.6" />
<circle cx="65.5294" cy="44.0000" r="0.6" />
<circle cx="68.2246" cy="44.0000" r="0.6" />
<circle cx="65.9144" cy="45.2000" r="0.6" />
<circle cx="66.6845" cy="45.2000" r="0.6" />
<circle cx="67.4545" cy="45.2000" r="0.6" />
<circle cx="68.2246" cy="45.2000" r="0.6" />
<circle cx="3.9636" cy="50.0000" r="0.6" />
<circle cx="5.2727" cy="50.0000" r="0.6" />
<circle cx="2.6545" cy="51.2000" r="0.6" />
<circle cx="6.5818" cy="51.2000" r="0.6" />
<circle cx="2.0000" cy="52.4000" r="0.6" />
<circle cx="7.2364" cy="52.4000" r="0.6" />
<circle cx="2.0000" cy="53.6000" r="0.6" />
<circle cx="7.2364" cy="53.6000" r="0.6" />
<circle cx="2.0000" cy="54.8000" r="0.6" />
<circle cx="7.2364" cy="54.8000" r="0.6" />
<circle cx="2.6545" cy="56.0000" r="0.6" />
<circle cx="6.5818" cy="56.0000" r="0.6" />
<circle cx="3.9636" cy="57.2000" r="0.6" />
<circle cx="5.2727" cy="57.2000" r="0.6" />
<circle cx="10.5091" cy="56.0000" r="0.6" />
<circle cx="11.8182" cy="56.0000" r="0.6" />
<circle cx="10.5091" cy="57.2000" r="0.6" />
<circle cx="11.8182" cy="57.2000" r="0.6" />
<circle cx="17.7091" cy="56.0000" r="0.6" />
<circle cx="19.0182" cy="56.0000" r="0.6" />
<circle cx="17.7091" cy="57.2000" r="0.6" />
<circle cx="19.0182" cy="57.2000" r="0.6" />
<circle cx="24.9091" cy="56.0000" r="0.6" />
<circle cx="26.2182" cy="56.0000" r="0.6" />
<circle cx="24.9091" cy="57.2000" r="0.6" />
<circle cx="26.2182" cy="57.2000" r="0.6" />
<circle cx="32.1091" cy="56.0000" r="0.6" />
<circle cx="33.4182" cy="56.0000" r="0.6" />
<circle cx="32.1091" cy="57.2000" r="0.6" />
<circle cx="33.4182" cy="57.2000" r="0.6" />
<circle cx="40.6182" cy="50.0000" r="0.6" />
<circle cx="39.3091" cy="51.2000" r="0.6" />
<circle cx="40.6182" cy="51.2000" r="0.6" />
<circle cx="40.6182" cy="52.4000" r="0.6" />
<circle cx="40.6182" cy="53.6000" r="0.6" />
<circle cx="40.6182" cy="54.8000" r="0.6" />
<circle cx="40.6182" cy="56.0000" r="0.6" />
<circle cx="39.3091" cy="57.2000" r="0.6" />
<circle cx="40.6182" cy="57.2000" r="0.6" />
<circle cx="41.9273" cy="57.2000" r="0.6" />
<circle cx="46.5091" cy="56.0000" r="0.6" />
<circle cx="47.8182" cy="56.0000" r="0.6" />
<circle cx="46.5091" cy="57.2000" r="0.6" />
<circle cx="47.8182" cy="57.2000" r="0.6" />
<circle cx="53.7091" cy="56.0000" r="0.6" />
<circle cx="55.0182" cy="56.0000" r="0.6" />
<circle cx="53.7091" cy="57.2000" r="0.6" />
<circle cx="55.0182" cy="57.2000" r="0.6" />
<circle cx="60.9091" cy="56.0000" r="0.6" />
<circle cx="62.2182" cy="56.0000" r="0.6" />
<circle cx="60.9091" cy="57.2000" r="0.6" />
<circle cx="62.2182" cy="57.2000" r="0.6" />
<circle cx="68.1091" cy="56.0000" r="0.6" />
<circle cx="69.4182" cy="56.0000" r="0.6" />
<circle cx="68.1091" cy="57.2000" r="0.6" />
<circle cx="69.4182" cy="57.2000" r="0.6" />
<circle cx="74.6545" cy="50.0000" r="0.6" />
<circle cx="75.9636" cy="50.0000" r="0.6" />
<circle cx="77.2727" cy="50.0000" r="0.6" />
<circle cx="78.5818" cy="50.0000" r="0.6" />
<circle cx="74.0000" cy="51.2000" r="0.6" />
<circle cx="79.2364" cy="51.2000" r="0.6" />
<circle cx="79.2364" cy="52.4000" r="0.6" />
<circle cx="77.9273" cy="53.6000" r="0.6" />
<circle cx="76.6182" cy="54.8000" r="0.6" />
<circle cx="75.3091" cy="56.0000" r="0.6" />
<circle cx="74.0000" cy="57.2000" r="0.6" />
<circle cx="75.3091" cy="57.2000" r="0.6" />
<circle cx="76.6182" cy="57.2000" r="0.6" />
<circle cx="77.9273" cy="57.2000" r="0.6" />
<circle cx="79.2364" cy="57.2000" r="0.6" />
<circle cx="82.5091" cy="56.0000" r="0.6" />
<circle cx="83.8182" cy="56.0000" r="0.6" />
<circle cx="82.5091" cy="57.2000" r="0.6" />
<circle cx="83.8182" cy="57.2000" r="0.6" />
<circle cx="89.7091" cy="56.0000" r="0.6" />
<circle cx="91.0182" cy="56.0000" r="0.6" />
<circle cx="89.7091" cy="57.2000" r="0.6" />
<circle cx="91.0182" cy="57.2000" r="0.6" />
<circle cx="96.9091" cy="56.0000" r="0.6" />
<circle cx="98.2182" cy="56.0000" r="0.6" />
<circle cx="96.9091" cy="57.2000" r="0.6" />
<circle cx="98.2182" cy="57.2000" r="0.6" />
<circle cx="104.1091" cy="56.0000" r="0.6" />
<circle cx="105.4182" cy="56.0000" r="0.6" />
<circle cx="104.1091" cy="57.2000" r="0.6" />
<circle cx="105.4182" cy="57.2000" r="0.6" />
<circle cx="111.9636" cy="50.0000" r="0.6" />
<circle cx="113.2727" cy="50.0000" r="0.6" />
<circle cx="110.6545" cy="51.2000" r="0.6" />
<circle cx="114.5818" cy="51.2000" r="0.6" />
<circle cx="110.0000" cy="52.4000" r="0.6" />
<circle cx="115.2364" cy="52.4000" r="0.6" />
<circle cx="110.0000" cy="53.6000" r="0.6" />
<circle cx="115.2364" cy="53.6000" r="0.6" />
<circle cx="110.0000" cy="54.8000" r="0.6" />
<circle cx="115.2364" cy="54.8000" r="0.6" />
<circle cx="110.6545" cy="56.0000" r="0.6" />
<circle cx="114.5818" cy="56.0000" r="0.6" />
<circle cx="111.9636" cy="57.2000" r="0.6" />
<circle cx="113.2727" cy="57.2000" r="0.6" />
<circle cx="118.5091" cy="56.0000" r="0.6" />
<circle cx="119.8182" cy="56.0000" r="0.6" />
<circle cx="118.5091" cy="57.2000" r="0.6" />
<circle cx="119.8182" cy="57.2000" r="0.6" />
<circle cx="3.3091" cy="68.0000" r="0.6" />
<circle cx="4.6182" cy="68.0000" r="0.6" />
<circle cx="3.3091" cy="69.2000" r="0.6" />
<circle cx="4.6182" cy="69.2000" r="0.6" />
<circle cx="10.5091" cy="68.0000" r="0.6" />
<circle cx="11.8182" cy="68.0000" r="0.6" />
<circle cx="10.5091" cy="69.2000" r="0.6" />
<circle cx="11.8182" cy="69.2000" r="0.6" />
<circle cx="17.7091" cy="68.0000" r="0.6" />
<circle cx="19.0182" cy="68.0000" r="0.6" />
<circle cx="17.7091" cy="69.2000" r="0.6" />
<circle cx="19.0182" cy="69.2000" r="0.6" />
<circle cx="26.2182" cy="62.0000" r="0.6" />
<circle cx="24.9091" cy="63.2000" r="0.6" />
<circle cx="26.2182" cy="63.2000" r="0.6" />
<circle cx="26.2182" cy="64.4000" r="0.6" />
<circle cx="26.2182" cy="65.6000" r="0.6" />
<circle cx="26.2182" cy="66.8000" r="0.6" />
<circle cx="26.2182" cy="68.0000" r="0.6" />
<circle cx="24.9091" cy="69.2000" r="0.6" />
<circle cx="26.2182" cy="69.2000" r="0.6" />
<circle cx="27.5273" cy="69.2000" r="0.6" />
<circle cx="32.1091" cy="68.0000" r="0.6" />
<circle cx="33.4182" cy="68.0000" r="0.6" />
<circle cx="32.1091" cy="69.2000" r="0.6" />
<circle cx="33.4182" cy="69.2000" r="0.6" />
<circle cx="39.3091" cy="68.0000" r="0.6" />
<circle cx="40.6182" cy="68.0000" r="0.6" />
<circle cx="39.3091" cy="69.2000" r="0.6" />
<circle cx="40.6182" cy="69.2000" r="0.6" />
<circle cx="46.5091" cy="68.0000" r="0.6" />
<circle cx="47.8182" cy="68.0000" r="0.6" />
<circle cx="46.5091" cy="69.2000" r="0.6" />
<circle cx="47.8182" cy="69.2000" r="0.6" />
<circle cx="53.7091" cy="68.0000" r="0.6" />
<circle cx="55.0182" cy="68.0000" r="0.6" />
<circle cx="53.7091" cy="69.2000" r="0.6" />
<circle cx="55.0182" cy="69.2000" r="0.6" />
<circle cx="60.2545" cy="62.0000" r="0.6" />
<circle cx="61.5636" cy="62.0000" r="0.6" />
<circle cx="62.8727" cy="62.0000" r="0.6" />
<circle cx="64.1818" cy="62.0000" r="0.6" />
<circle cx="59.6000" cy="63.2000" r="0.6" />
<circle cx="64.8364" cy="63.2000" r="0.6" />
<circle cx="64.8364" cy="64.4000" r="0.6" />
<circle cx="63.5273" cy="65.6000" r="0.6" />
<circle cx="62.2182" cy="66.8000" r="0.6" />
<circle cx="60.9091" cy="68.0000" r="0.6" />
<circle cx="59.6000" cy="69.2000" r="0.6" />
<circle cx="60.9091" cy="69.2000" r="0.6" />
<circle cx="62.2182" cy="69.2000" r="0.6" />
<circle cx="63.5273" cy="69.2000" r="0.6" />
<circle cx="64.8364" cy="69.2000" r="0.6" />
<circle cx="68.1091" cy="68.0000" r="0.6" />
<circle cx="69.4182" cy="68.0000" r="0.6" />
<circle cx="68.1091" cy="69.2000" r="0.6" />
<circle cx="69.4182" cy="69.2000" r="0.6" />
<circle cx="75.3091" cy="68.0000" r="0.6" />
<circle cx="76.6182" cy="68.0000" r="0.6" />
<circle cx="75.3091" cy="69.2000" r="0.6" />
<circle cx="76.6182" cy="69.2000" r="0.6" />
<circle cx="82.5091" cy="68.0000" r="0.6" />
<circle cx="83.8182" cy="68.0000" r="0.6" />
<circle cx="82.5091" cy="69.2000" r="0.6" />
<circle cx="83.8182" cy="69.2000" r="0.6" />
<circle cx="89.7091" cy="68.0000" r="0.6" />
<circle cx="91.0182" cy="68.0000" r="0.6" />
<circle cx="89.7091" cy="69.2000" r="0.6" />
<circle cx="91.0182" cy="69.2000" r="0.6" />
<circle cx="97.5636" cy="62.0000" r="0.6" />
<circle cx="98.8727" cy="62.0000" r="0.6" />
<circle cx="96.2545" cy="63.2000" r="0.6" />
<circle cx="100.1818" cy="63.2000" r="0.6" />
<circle cx="95.6000" cy="64.4000" r="0.6" />
<circle cx="100.8364" cy="64.4000" r="0.6" />
<circle cx="95.6000" cy="65.6000" r="0.6" />
<circle cx="100.8364" cy="65.6000" r="0.6" />
<circle cx="95.6000" cy="66.8000" r="0.6" />
<circle cx="100.8364" cy="66.8000" r="0.6" />
<circle cx="96.2545" cy="68.0000" r="0.6" />
<circle cx="100.1818" cy="68.0000" r="0.6" />
<circle cx="97.5636" cy="69.2000" r="0.6" />
<circle cx="98.8727" cy="69.2000" r="0.6" />
<circle cx="104.1091" cy="68.0000" r="0.6" />
<circle cx="105.4182" cy="68.0000" r="0.6" />
<circle cx="104.1091" cy="69.2000" r="0.6" />
<circle cx="105.4182" cy="69.2000" r="0.6" />
<circle cx="111.3091" cy="68.0000" r="0.6" />
<circle cx="112.6182" cy="68.0000" r="0.6" />
<circle cx="111.3091" cy="69.2000" r="0.6" />
<circle cx="112.6182" cy="69.2000" r="0.6" />
<circle cx="118.5091" cy="68.0000" r="0.6" />
<circle cx="119.8182" cy="68.0000" r="0.6" />
<circle cx="118.5091" cy="69.2000" r="0.6" />
<circle cx="119.8182" cy="69.2000" r="0.6" />
<circle cx="3.3091" cy="80.0000" r="0.6" />
<circle cx="4.6182" cy="80.0000" r="0.6" />
<circle cx="3.3091" cy="81.2000" r="0.6" />
<circle cx="4.6182" cy="81.2000" r="0.6" />
<circle cx="11.8182" cy="74.0000" r="0.6" />
<circle cx="10.5091" cy="75.2000" r="0.6" />
<circle cx="11.8182" cy="75.2000" r="0.6" />
<circle cx="11.8182" cy="76.4000" r="0.6" />
<circle cx="11.8182" cy="77.6000" r="0.6" />
<circle cx="11.8182" cy="78.8000" r="0.6" />
<circle cx="11.8182" cy="80.0000" r="0.6" />
<circle cx="10.5091" cy="81.2000" r="0.6" />
<circle cx="11.8182" cy="81.2000" r="0.6" />
<circle cx="13.1273" cy="81.2000" r="0.6" />
<circle cx="17.7091" cy="80.0000" r="0.6" />
<circle cx="19.0182" cy="80.0000" r="0.6" />
<circle cx="17.7091" cy="81.2000" r="0.6" />
<circle cx="19.0182" cy="81.2000" r="0.6" />
<circle cx="24.9091" cy="80.0000" r="0.6" />
<circle cx="26.2182" cy="80.0000" r="0.6" />
<circle cx="24.9091" cy="81.2000" r="0.6" />
<circle cx="26.2182" cy="81.2000" r="0.6" />
<circle cx="32.1091" cy="80.0000" r="0.6" />
<circle cx="33.4182" cy="80.0000" r="0.6" />
<circle cx="32.1091" cy="81.2000" r="0.6" />
<circle cx="33.4182" cy="81.2000" r="0.6" />
<circle cx="39.3091" cy="80.0000" r="0.6" />
<circle cx="40.6182" cy="80.0000" r="0.6" />
<circle cx="39.3091" cy="81.2000" r="0.6" />
<circle cx="40.6182" cy="81.2000" r="0.6" />
<circle cx="45.8545" cy="74.0000" r="0.6" />
<circle cx="47.1636" cy="74.0000" r="0.6" />
<circle cx="48.4727" cy="74.0000" r="0.6" />
<circle cx="49.7818" cy="74.0000" r="0.6" />
<circle cx="45.2000" cy="75.2000" r="0.6" />
<circle cx="50.4364" cy="75.2000" r="0.6" />
<circle cx="50.4364" cy="76.4000" r="0.6" />
<circle cx="49.1273" cy="77.6000" r="0.6" />
<circle cx="47.8182" cy="78.8000" r="0.6" />
<circle cx="46.5091" cy="80.0000" r="0.6" />
<circle cx="45.2000" cy="81.2000" r="0.6" />
<circle cx="46.5091" cy="81.2000" r="0.6" />
<circle cx="47.8182" cy="81.2000" r="0.6" />
<circle cx="49.1273" cy="81.2000" r="0.6" />
<circle cx="50.4364" cy="81.2000" r="0.6" />
<circle cx="53.7091" cy="80.0000" r="0.6" />
<circle cx="55.0182" cy="80.0000" r="0.6" />
<circle cx="53.7091" cy="81.2000" r="0.6" />
<circle cx="55.0182" cy="81.2000" r="0.6" />
<circle cx="60.9091" cy="80.0000" r="0.6" />
<circle cx="62.2182" cy="80.0000" r="0.6" />
<circle cx="60.9091" cy="81.2000" r="0.6" />
<circle cx="62.2182" cy="81.2000" r="0.6" />
<circle cx="68.1091" cy="80.0000" r="0.6" />
<circle cx="69.4182" cy="80.0000" r="0.6" />
<circle cx="68.1091" cy="81.2000" r="0.6" />
<circle cx="69.4182" cy="81.2000" r="0.6" />
<circle cx="75.3091" cy="80.0000" r="0.6" />
<circle cx="76.6182" cy="80.0000" r="0.6" />
<circle cx="75.3091" cy="81.2000" r="0.6" />
<circle cx="76.6182" cy="81.2000" r="0.6" />
<circle cx="83.1636" cy="74.0000" r="0.6" />
<circle cx="84.4727" cy="74.0000" r="0.6" />
<circle cx="81.8545" cy="75.2000" r="0.6" />
<circle cx="85.7818" cy="75.2000" r="0.6" />
<circle cx="81.2000" cy="76.4000" r="0.6" />
<circle cx="86.4364" cy="76.4000" r="0.6" />
<circle cx="81.2000" cy="77.6000" r="0.6" />
<circle cx="86.4364" cy="77.6000" r="0.6" />
<circle cx="81.2000" cy="78.8000" r="0.6" />
<circle cx="86.4364" cy="78.8000" r="0.6" />
<circle cx="81.8545" cy="80.0000" r="0.6" />
<circle cx="85.7818" cy="80.0000" r="0.6" />
<circle cx="83.1636" cy="81.2000" r="0.6" />
<circle cx="84.4727" cy="81.2000" r="0.6" />
<circle cx="89.7091" cy="80.0000" r="0.6" />
<circle cx="91.0182" cy="80.0000" r="0.6" />
<circle cx="89.7091" cy="81.2000" r="0.6" />
<circle cx="91.0182" cy="81.2000" r="0.6" />
<circle cx="96.9091" cy="80.0000" r="0.6" />
<circle cx="98.2182" cy="80.0000" r="0.6" />
<circle cx="96.9091" cy="81.2000" r="0.6" />
<circle cx="98.2182" cy="81.2000" r="0.6" />
<circle cx="104.1091" cy="80.0000" r="0.6" />
<circle cx="105.4182" cy="80.0000" r="0.6" />
<circle cx="104.1091" cy="81.2000" r="0.6" />
<circle cx="105.4182" cy="81.2000" r="0.6" />
<circle cx="111.3091" cy="80.0000" r="0.6" />
<circle cx="112.6182" cy="80.0000" r="0.6" />
<circle cx="111.3091" cy="81.2000" r="0.6" />
<circle cx="112.6182" cy="81.2000" r="0.6" />
<circle cx="119.8182" cy="74.0000" r="0.6" />
<circle cx="118.5091" cy="75.2000" r="0.6" />
<circle cx="119.8182" cy="75.2000" r="0.6" />
<circle cx="119.8182" cy="76.4000" r="0.6" />
<circle cx="119.8182" cy="77.6000" r="0.6" />
<circle cx="119.8182" cy="78.8000" r="0.6" />
<circle cx="119.8182" cy="80.0000" r="0.6" />
<circle cx="118.5091" cy="81.2000" r="0.6" />
<circle cx="119.8182" cy="81.2000" r="0.6" />
<circle cx="121.1273" cy="81.2000" r="0.6" />
<circle cx="3.3091" cy="92.0000" r="0.6" />
<circle cx="4.6182" cy="92.0000" r="0.6" />
<circle cx="3.3091" cy="93.2000" r="0.6" />
<circle cx="4.6182" cy="93.2000" r="0.6" />
<circle cx="10.5091" cy="92.0000" r="0.6" />
<circle cx="11.8182" cy="92.0000" r="0.6" />
<circle cx="10.5091" cy="93.2000" r="0.6" />
<circle cx="11.8182" cy="93.2000" r="0.6" />
<circle cx="17.7091" cy="92.0000" r="0.6" />
<circle cx="19.0182" cy="92.0000" r="0.6" />
<circle cx="17.7091" cy="93.2000" r="0.6" />
<circle cx="19.0182" cy="93.2000" r="0.6" />
<circle cx="24.9091" cy="92.0000" r="0.6" />
<circle cx="26.2182" cy="92.0000" r="0.6" />
<circle cx="24.9091" cy="93.2000" r="0.6" />
<circle cx="26.2182" cy="93.2000" r="0.6" />
<circle cx="31.4545" cy="86.0000" r="0.6" />
<circle cx="32.7636" cy="86.0000" r="0.6" />
<circle cx="34.0727" cy="86.0000" r="0.6" />
<circle cx="35.3818" cy="86.0000" r="0.6" />
<circle cx="30.8000" cy="87.2000" r="0.6" />
<circle cx="36.0364" cy="87.2000" r="0.6" />
<circle cx="36.0364" cy="88.4000" r="0.6" />
<circle cx="34.7273" cy="89.6000" r="0.6" />
<circle cx="33.4182" cy="90.8000" r="0.6" />
<circle cx="32.1091" cy="92.0000" r="0.6" />
<circle cx="30.8000" cy="93.2000" r="0.6" />
<circle cx="32.1091" cy="93.2000" r="0.6" />
<circle cx="33.4182" cy="93.2000" r="0.6" />
<circle cx="34.7273" cy="93.2000" r="0.6" />
<circle cx="36.0364" cy="93.2000" r="0.6" />
<circle cx="39.3091" cy="92.0000" r="0.6" />
<circle cx="40.6182" cy="92.0000" r="0.6" />
<circle cx="39.3091" cy="93.2000" r="0.6" />
<circle cx="40.6182" cy="93.2000" r="0.6" />
<circle cx="46.5091" cy="92.0000" r="0.6" />
<circle cx="47.8182" cy="92.0000" r="0.6" />
<circle cx="46.5091" cy="93.2000" r="0.6" />
<circle cx="47.8182" cy="93.2000" r="0.6" />
<circle cx="53.7091" cy="92.0000" r="0.6" />
<circle cx="55.0182" cy="92.0000" r="0.6" />
<circle cx="53.7091" cy="93.2000" r="0.6" />
<circle cx="55.0182" cy="93.2000" r="0.6" />
<circle cx="60.9091" cy="92.0000" r="0.6" />
<circle cx="62.2182" cy="92.0000" r="0.6" />
<circle cx="60.9091" cy="93.2000" r="0.6" />
<circle cx="62.2182" cy="93.2000" r="0.6" />
<line x1="0" y1="2" x2="2000" y2="2" style="stroke:rgb(255,0,0);stroke-width:0.5" />
<line x1="2" y1="0" x2="2" y2="2000" style="stroke:rgb(255,0,0);stroke-width:0.5" />
<line x1="123" y1="0" x2="123" y2="2000" style="stroke:rgb(255,0,0);stroke-width:0.5" />
</g>
</svg>